<svg width="172" height="139" viewBox="0 0 172 139" fill="none" xmlns="http://www.w3.org/2000/svg">
<g id="Google Pay" filter="url(#filter0_d_66_845)">
<g id="Google Pay_2">
<rect id="Rectangle" x="40" y="15" width="92" height="59" rx="3" fill="white"/>
<g id="Group">
<path id="Vector" d="M84.1073 46.0251V54.1804H81.5254V34.0405H88.3731C89.1905 34.0234 90.0031 34.1687 90.7642 34.4679C91.5253 34.7672 92.2197 35.2145 92.8073 35.784C93.4008 36.319 93.8732 36.9751 94.1927 37.7083C94.5122 38.4414 94.6714 39.2345 94.6595 40.0344C94.6765 40.8386 94.5198 41.6369 94.2001 42.3747C93.8804 43.1125 93.4053 43.7723 92.8073 44.3089C91.6099 45.4531 90.1318 46.0246 88.3731 46.0235H84.1073V46.0251ZM84.1073 36.52V43.5504H88.4373C88.9119 43.5645 89.3843 43.4792 89.8242 43.2999C90.2641 43.1206 90.6618 42.8513 90.9919 42.5091C91.3203 42.1892 91.5813 41.8066 91.7595 41.3839C91.9377 40.9612 92.0296 40.507 92.0296 40.0481C92.0296 39.5892 91.9377 39.135 91.7595 38.7123C91.5813 38.2895 91.3203 37.9069 90.9919 37.587C90.666 37.2377 90.2697 36.9618 89.8292 36.7775C89.3888 36.5933 88.9143 36.505 88.4373 36.5184H84.1073V36.52Z" fill="#5F6368"/>
<path id="Vector_2" d="M100.61 39.9508C102.518 39.9508 104.024 40.4618 105.129 41.4838C106.233 42.5059 106.785 43.9071 106.784 45.6876V54.1803H104.314V52.2681H104.202C103.133 53.8429 101.711 54.6303 99.936 54.6303C98.421 54.6303 97.1536 54.1803 96.1336 53.2805C95.6442 52.8674 95.2528 52.3502 94.9882 51.7664C94.7235 51.1826 94.5922 50.547 94.6037 49.9059C94.6037 48.48 95.1415 47.346 96.217 46.5039C97.2926 45.6619 98.7284 45.2398 100.525 45.2377C102.058 45.2377 103.32 45.5189 104.312 46.0813V45.49C104.315 45.0529 104.221 44.6207 104.037 44.2246C103.852 43.8285 103.582 43.4786 103.246 43.2001C102.563 42.5828 101.673 42.246 100.754 42.2568C99.3116 42.2568 98.1703 42.8663 97.33 44.0855L95.056 42.6505C96.3068 40.8507 98.158 39.9508 100.61 39.9508ZM97.269 49.9621C97.2673 50.2914 97.3441 50.6163 97.4931 50.9098C97.642 51.2033 97.8588 51.4569 98.1254 51.6494C98.6964 52.0995 99.4052 52.3379 100.132 52.3243C101.221 52.3225 102.266 51.8879 103.036 51.1159C103.891 50.3092 104.319 49.3627 104.319 48.2764C103.514 47.6336 102.391 47.3122 100.951 47.3122C99.9023 47.3122 99.0277 47.5656 98.3275 48.0723C97.6203 48.5866 97.269 49.2117 97.269 49.9621Z" fill="#5F6368"/>
<path id="Vector_3" d="M120.96 40.4008L112.339 60.2547H109.673L112.873 53.3079L107.204 40.4008H110.01L114.107 50.2997H114.164L118.149 40.4008H120.96Z" fill="#5F6368"/>
<g id="Group_2">
<path id="Vector_4" d="M73.6738 44.2671C73.6748 43.4786 73.6082 42.6916 73.4749 41.9145H62.5859V46.3706H68.8227C68.695 47.0823 68.4249 47.7607 68.0286 48.365C67.6322 48.9693 67.1179 49.4869 66.5166 49.8866V52.7791H70.2387C72.4181 50.7656 73.6738 47.7879 73.6738 44.2671Z" fill="#4285F4"/>
<path id="Vector_5" d="M62.586 55.5736C65.702 55.5736 68.3256 54.5484 70.2388 52.7808L66.5166 49.8883C65.4807 50.5921 64.1464 50.9938 62.586 50.9938C59.5743 50.9938 57.018 48.9594 56.1039 46.218H52.2695V49.1989C53.2306 51.1151 54.7042 52.726 56.5259 53.8517C58.3477 54.9774 60.4458 55.5735 62.586 55.5736Z" fill="#34A853"/>
<path id="Vector_6" d="M56.1039 46.2181C55.6207 44.7815 55.6207 43.2259 56.1039 41.7893V38.8084H52.2695C51.4611 40.4205 51.04 42.1996 51.04 44.0037C51.04 45.8078 51.4611 47.587 52.2695 49.199L56.1039 46.2181Z" fill="#FBBC04"/>
<path id="Vector_7" d="M62.586 37.0134C64.2327 36.9864 65.8237 37.6098 67.0154 38.7489L70.3109 35.4466C68.2212 33.4798 65.4528 32.4 62.586 32.4336C60.4458 32.4337 58.3477 33.0298 56.5259 34.1555C54.7042 35.2812 53.2306 36.8921 52.2695 38.8083L56.1039 41.7892C57.018 39.0478 59.5743 37.0134 62.586 37.0134Z" fill="#EA4335"/>
</g>
</g>
</g>
</g>
<defs>
<filter id="filter0_d_66_845" x="0" y="0" width="172" height="139" filterUnits="userSpaceOnUse" color-interpolation-filters="sRGB">
<feFlood flood-opacity="0" result="BackgroundImageFix"/>
<feColorMatrix in="SourceAlpha" type="matrix" values="0 0 0 0 0 0 0 0 0 0 0 0 0 0 0 0 0 0 127 0" result="hardAlpha"/>
<feOffset dy="25"/>
<feGaussianBlur stdDeviation="20"/>
<feColorMatrix type="matrix" values="0 0 0 0 0 0 0 0 0 0 0 0 0 0 0 0 0 0 0.03 0"/>
<feBlend mode="normal" in2="BackgroundImageFix" result="effect1_dropShadow_66_845"/>
<feBlend mode="normal" in="SourceGraphic" in2="effect1_dropShadow_66_845" result="shape"/>
</filter>
</defs>
</svg>
