<svg width="172" height="139" viewBox="0 0 172 139" fill="none" xmlns="http://www.w3.org/2000/svg">
<g id="AliPay" filter="url(#filter0_d_66_834)">
<g id="AliPay_2">
<rect id="Rectangle" x="40" y="15" width="92" height="59" rx="3" fill="white"/>
<g id="Group">
<path id="Vector" d="M69.1211 48.3561V37.1682C69.1211 35.2583 67.5584 33.7285 65.6523 33.7285H50.8287C48.8865 33.7285 47.3599 35.2583 47.3599 37.1682V51.832C47.3599 53.7419 48.9226 55.2716 50.8287 55.2716H65.6162C67.5584 55.2716 69.085 53.7419 69.085 51.832V51.6781C69.085 51.6781 63.403 49.3518 60.5485 47.9759C58.6425 50.3022 56.1673 51.7143 53.5748 51.7143C51.9759 51.7143 50.639 51.144 49.844 50.3022C49.4646 49.8858 49.1936 49.388 49.0401 48.8539C49.0401 48.8177 49.0039 48.7363 49.0039 48.7001C49.0039 48.7001 48.9678 48.6277 48.9678 48.51C48.7781 47.4781 49.0852 46.41 49.844 45.4958C50.3047 44.9617 51.0635 44.4277 52.2469 44.1561C54.1168 43.6945 57.0526 44.4277 59.7897 45.3419C60.2865 44.4277 60.7021 43.432 61.0092 42.3639H52.545V41.522H56.9261V39.9923H51.6236V39.1505H56.9171V36.9781C56.9171 36.9781 56.9171 36.5979 57.2965 36.5979H59.4284V39.1595H64.7038V40.0014H59.4464V41.5311H63.7102C63.2946 43.2147 62.6804 44.7354 61.8854 46.0751C63.1772 46.5367 64.3606 46.9893 65.2368 47.2608C68.3985 48.2837 69.1211 48.3561 69.1211 48.3561ZM52.6534 45.4143C52.1204 45.4505 51.0906 45.722 50.5215 46.1746C48.8413 47.6229 49.835 50.257 53.2315 50.257C55.2098 50.257 57.161 48.9988 58.7147 47.0074C56.5016 45.9936 54.6768 45.2242 52.6534 45.4143Z" fill="#499FE3"/>
<path id="Vector_2" d="M81.849 49.8043H84.7848L79.3016 37.8108H78.4976C78.3802 37.8108 78.2266 37.847 78.1182 37.9285C78.0098 38.0099 77.9285 38.1185 77.8472 38.2362L72.2827 49.8043H74.261L75.2547 47.8582H80.9366L81.849 49.8043ZM78.1544 41.7121L80.5572 46.8716H75.6341L78.1544 41.7121ZM88.5969 49.8043H85.9321V38.3539C85.9321 38.2362 85.9682 38.0823 86.0856 37.9737C86.2031 37.856 86.3115 37.8198 86.465 37.8198H88.633V49.8134H88.5969V49.8043ZM90.9184 41.4858C90.9184 41.3681 90.9546 41.2142 91.072 41.1418C91.1894 41.0242 91.2978 40.9879 91.4514 40.9879H93.6194V49.8134H90.9094V41.4858H90.9184ZM95.8687 41.4858C95.8687 41.3681 95.9048 41.2142 96.0223 41.1056C96.1397 40.9879 96.2481 40.9517 96.4017 40.9517H98.5697V41.6397C98.8768 41.3681 99.2201 41.178 99.6356 41.0242C100.015 40.8703 100.512 40.7979 101.045 40.7979C101.614 40.7979 102.111 40.9155 102.608 41.1418C103.068 41.3681 103.484 41.6759 103.791 42.056C104.134 42.4362 104.36 42.8617 104.55 43.3957C104.739 43.8935 104.821 44.4276 104.821 44.9979C104.821 45.722 104.703 46.3737 104.514 46.9802C104.288 47.5957 103.981 48.1298 103.601 48.5823C103.222 49.044 102.725 49.3879 102.156 49.6504C101.587 49.922 100.973 50.0306 100.25 50.0306C99.9066 50.0306 99.5995 50.0306 99.3375 49.9944C99.0665 49.9582 98.8407 49.922 98.5787 49.8043V53.3526H95.8687V41.4858ZM98.5787 47.3242C98.5787 47.5504 98.6148 47.7405 98.6961 47.9397C98.7684 48.1298 98.8858 48.2836 99.0394 48.4375C99.193 48.5914 99.3465 48.7091 99.5724 48.7815C99.7621 48.8539 99.9879 48.8992 100.259 48.8992C100.485 48.8992 100.72 48.8267 100.909 48.6729C101.099 48.519 101.289 48.3289 101.442 48.0211C101.596 47.7496 101.713 47.4056 101.822 47.0254C101.894 46.6453 101.975 46.2198 101.975 45.8035C101.975 45.2332 101.939 44.7354 101.858 44.3099C101.786 43.8935 101.668 43.5043 101.515 43.2418C101.361 42.9341 101.207 42.744 101.018 42.5901C100.828 42.4362 100.602 42.3638 100.367 42.3638C100.214 42.3638 100.024 42.4 99.8705 42.4362C99.7169 42.5086 99.5633 42.5901 99.4098 42.6625C99.2562 42.7802 99.1388 42.8888 98.9942 43.0065C98.8768 43.1604 98.7232 43.278 98.6148 43.4229V47.3151H98.5787V47.3242ZM111.767 41.0604C110.476 40.6802 108.832 40.644 106.618 41.2142C106.691 41.4405 106.772 41.8298 106.844 42.056C110.385 41.4405 111.036 41.9022 111.036 43.4319V43.8935C110.385 43.8573 109.626 43.7397 109.012 43.7397C106.609 43.7035 105.733 45.6134 105.733 46.8354C105.733 48.9354 107.757 50.9177 111.027 49.4694V49.8134H113.773V43.3595C113.818 42.0923 112.752 41.3319 111.767 41.0604ZM107.955 46.8716C107.955 45.8397 108.795 45.0793 109.825 44.9979C110.476 44.9617 110.855 45.0703 111.081 45.2242V48.2384C110.738 48.5461 110.322 48.7362 109.825 48.7362C108.75 48.7362 107.955 47.8944 107.955 46.8716ZM114.55 40.7979H117.404L120.223 46.2198L122.544 41.1418C122.58 41.0242 122.662 40.9517 122.77 40.8703C122.887 40.7979 122.996 40.7979 123.113 40.7979H124.64L120.177 50.6099C119.111 53.2802 116.483 52.9 116.022 52.9V51.4065C116.365 51.4065 117.585 51.4065 118.118 50.8362C118.235 50.7185 118.344 50.456 118.425 50.3022C118.506 50.1483 118.578 49.9944 118.651 49.8405L118.958 49.1164L114.55 40.7979Z" fill="#3E3A39"/>
<path id="Vector_3" d="M93.7369 38.3538C93.7369 39.0779 93.0865 39.6482 92.2915 39.6482C91.4876 39.6482 90.8462 39.0779 90.8462 38.3538C90.8462 37.6297 91.4966 37.0594 92.2915 37.0594C93.0865 37.0503 93.7369 37.6297 93.7369 38.3538Z" fill="#499FE3"/>
</g>
</g>
</g>
<defs>
<filter id="filter0_d_66_834" x="0" y="0" width="172" height="139" filterUnits="userSpaceOnUse" color-interpolation-filters="sRGB">
<feFlood flood-opacity="0" result="BackgroundImageFix"/>
<feColorMatrix in="SourceAlpha" type="matrix" values="0 0 0 0 0 0 0 0 0 0 0 0 0 0 0 0 0 0 127 0" result="hardAlpha"/>
<feOffset dy="25"/>
<feGaussianBlur stdDeviation="20"/>
<feColorMatrix type="matrix" values="0 0 0 0 0 0 0 0 0 0 0 0 0 0 0 0 0 0 0.03 0"/>
<feBlend mode="normal" in2="BackgroundImageFix" result="effect1_dropShadow_66_834"/>
<feBlend mode="normal" in="SourceGraphic" in2="effect1_dropShadow_66_834" result="shape"/>
</filter>
</defs>
</svg>
