<svg width="28" height="28" viewBox="0 0 28 28" fill="none" xmlns="http://www.w3.org/2000/svg">
<g opacity="0.3">
<path d="M26.1507 8.84772C25.5515 8.24813 24.599 8.21045 23.9549 8.73529C23.8617 8.81119 23.9339 8.74431 22.5156 10.1625L26.1971 13.8439L27.5202 12.5374C28.1598 11.8977 28.1598 10.8569 27.5202 10.2172L26.1507 8.84772Z" fill="#2A3256"/>
<path d="M14.9662 17.7815L12.8006 22.422C12.6548 22.7346 12.72 23.105 12.9639 23.3489C13.2078 23.5929 13.5784 23.6581 13.8909 23.5122L18.5315 21.3466C18.7151 21.261 18.1592 21.7811 25.0297 14.9967L21.3555 11.3225C14.5436 18.1344 15.0536 17.5943 14.9662 17.7815V17.7815Z" fill="#2A3256"/>
<path d="M19.9135 22.3547C19.7126 22.553 19.4811 22.7141 19.2253 22.8335L14.5847 24.999C13.6722 25.4249 12.5573 25.2627 11.8039 24.5091C11.0748 23.7801 10.8779 22.6626 11.3139 21.7282L13.4795 17.0877C13.6011 16.8271 13.766 16.5918 13.9694 16.3884L20.9459 9.41205V2.46094C20.9459 1.10398 19.8418 0 18.4848 0H2.461C1.104 0 0 1.10398 0 2.46094V25.5391C0 26.896 1.104 28 2.461 28H18.4848C19.8418 28 20.9459 26.896 20.9459 25.5391V21.3352L19.9135 22.3547ZM4.37517 5.30469H16.6255C17.0785 5.30469 17.4458 5.67197 17.4458 6.125C17.4458 6.57803 17.0785 6.94531 16.6255 6.94531H4.37517C3.92212 6.94531 3.55483 6.57803 3.55483 6.125C3.55483 5.67197 3.92212 5.30469 4.37517 5.30469ZM4.37517 9.67969H14.0004C14.4535 9.67969 14.8207 10.047 14.8207 10.5C14.8207 10.953 14.4535 11.3203 14.0004 11.3203H4.37517C3.92212 11.3203 3.55483 10.953 3.55483 10.5C3.55483 10.047 3.92212 9.67969 4.37517 9.67969ZM3.55483 14.875C3.55483 14.422 3.92212 14.0547 4.37517 14.0547H11.3753C11.8284 14.0547 12.1957 14.422 12.1957 14.875C12.1957 15.328 11.8284 15.6953 11.3753 15.6953H4.37517C3.92212 15.6953 3.55483 15.328 3.55483 14.875Z" fill="#2A3256"/>
</g>
</svg>
