<svg width="172" height="139" viewBox="0 0 172 139" fill="none" xmlns="http://www.w3.org/2000/svg">
<g id="Alfa-Bank (&#208;&#144;&#208;&#187;&#209;&#140;&#209;&#132;&#208;&#176;-&#208;&#177;&#208;&#176;&#208;&#189;&#208;&#186;)" filter="url(#filter0_d_66_841)">
<g id="Alfa-Bank (&#208;&#144;&#208;&#187;&#209;&#140;&#209;&#132;&#208;&#176;-&#208;&#177;&#208;&#176;&#208;&#189;&#208;&#186;)_2">
<rect id="Rectangle" x="40" y="15" width="92" height="59" rx="3" fill="white"/>
<path id="path134" d="M56.0842 31.5937C57.9334 31.5937 58.5144 32.8537 59.0019 34.1116C59.2067 34.6458 64.0121 47.1462 64.1566 47.5214C64.195 47.6261 64.1691 47.7979 63.9996 47.8601C63.8292 47.9213 61.3324 48.8436 61.1941 48.8929C61.0559 48.9433 60.901 48.8702 60.8511 48.7389C60.7992 48.6095 59.7628 45.8843 59.6464 45.5802H52.5241C52.4118 45.8843 51.363 48.6155 51.3163 48.7389C51.2684 48.8643 51.1198 48.9492 50.9722 48.8929C50.8246 48.8376 48.3185 47.9154 48.1688 47.8601C48.0254 47.8068 47.9599 47.6518 48.0098 47.5214C48.1865 47.0534 52.9191 34.7534 53.1602 34.1116C53.6301 32.8724 54.2309 31.5937 56.0842 31.5937ZM47.6293 53.9612C47.4796 53.9612 47.3601 54.0797 47.3601 54.2239V57.1456C47.3601 57.2897 47.4796 57.4062 47.6293 57.4062H64.5318C64.6846 57.4062 64.8042 57.2897 64.8042 57.1456V54.2239C64.8042 54.0797 64.6846 53.9612 64.5318 53.9612H47.6293ZM56.0676 35.6756L53.6602 42.543H58.5144L56.0988 35.6756H56.0676ZM92.1916 46.9359C91.8371 47.0495 91.6033 47.0771 91.3247 47.0771C90.7488 47.0771 90.4297 46.8609 90.4297 46.3C90.4297 45.7155 90.8351 45.52 91.6313 45.52C91.8257 45.52 92.017 45.5466 92.1064 45.5763V45.9949C92.1064 46.4462 92.1323 46.7424 92.1916 46.9359ZM94.2383 47.6054C93.8131 46.9922 93.7019 46.6308 93.7019 45.8577V44.2877C93.7019 43.4425 93.598 43.1374 93.363 42.8293C93.0356 42.3929 92.4899 42.2033 91.4868 42.2033C90.7769 42.2033 90.0877 42.2764 89.4204 42.4383L89.6616 43.5541C90.1127 43.4938 90.5856 43.4425 90.9193 43.4425C91.9847 43.4425 92.1064 43.5886 92.1064 44.3479V44.6313C91.8694 44.5711 91.6033 44.5276 91.2945 44.5276C89.6907 44.5276 88.8435 45.2731 88.8435 46.5074C88.8435 47.6646 89.7489 48.2955 90.8517 48.2955C91.2634 48.2955 91.6937 48.2235 92.0346 48.0912C92.2404 48.0062 92.3298 47.9559 92.5959 47.792C92.756 48.0132 93.0772 48.2393 93.2082 48.2817L94.2383 47.6054ZM110.103 46.9359C109.747 47.0495 109.517 47.0771 109.236 47.0771C108.659 47.0771 108.335 46.8609 108.335 46.3C108.335 45.7155 108.746 45.52 109.544 45.52C109.739 45.52 109.931 45.5466 110.018 45.5763V45.9949C110.018 46.4462 110.043 46.7424 110.103 46.9359ZM112.152 47.6054C111.724 46.9922 111.615 46.6308 111.615 45.8577V44.2877C111.615 43.4425 111.509 43.1374 111.272 42.8293C110.948 42.3929 110.402 42.2033 109.396 42.2033C108.687 42.2033 107.993 42.2764 107.326 42.4383L107.564 43.5541C108.016 43.4938 108.49 43.4425 108.833 43.4425C109.892 43.4425 110.018 43.5886 110.018 44.3479V44.6313C109.781 44.5711 109.517 44.5276 109.202 44.5276C107.596 44.5276 106.746 45.2731 106.746 46.5074C106.746 47.6646 107.653 48.2955 108.761 48.2955C109.178 48.2955 109.604 48.2235 109.942 48.0912C110.151 48.0062 110.237 47.9559 110.504 47.792C110.666 48.0132 110.987 48.2393 111.119 48.2817L112.152 47.6054ZM124.64 48.1642C124.64 48.1642 123.761 46.384 123.546 45.9791C123.303 45.5229 123.079 45.208 122.584 45.0944V45.0687C122.916 45.0085 123.18 44.8179 123.469 44.2354C123.742 43.6676 123.823 43.5452 123.984 43.4099C124.142 43.2756 124.358 43.324 124.358 43.324L124.439 42.2744C124.21 42.2448 123.955 42.2438 123.692 42.2576C123.256 42.2823 123.03 42.4018 122.815 42.6072C122.646 42.7642 122.532 42.9992 122.391 43.2687C122.241 43.563 122.123 43.7999 121.967 44.0991C121.812 44.4062 121.739 44.5444 121.322 44.5444H121.051V39.8948H119.445V48.1642H121.051V45.7866L121.27 45.7826C121.731 45.7826 121.812 45.8922 122.055 46.3533C122.34 46.9033 122.886 48.1642 122.886 48.1642H124.64ZM79.3991 48.1642H81.2524L78.449 40.033C78.1538 39.9392 77.789 39.881 77.3992 39.881C76.974 39.881 76.8223 39.9343 76.4897 40.033L73.5231 48.1642H75.3016C75.3016 48.1642 75.5417 47.4513 75.8244 46.5676H78.897C79.1714 47.4503 79.3991 48.1642 79.3991 48.1642ZM76.2755 45.204C76.2755 45.204 76.789 43.5718 76.8691 43.3181C77.0728 42.6605 77.3825 41.6158 77.3825 41.6158H77.4335C77.4335 41.6158 77.7204 42.698 77.9075 43.3062C77.9782 43.5481 78.4688 45.204 78.4688 45.204H76.2755ZM96.9741 44.2739C96.4076 44.2739 95.9471 44.7133 95.9471 45.2514C95.9471 45.7935 96.4076 46.2299 96.9741 46.2299C97.5416 46.2299 98 45.7935 98 45.2514C98 44.7133 97.5416 44.2739 96.9741 44.2739ZM83.4529 39.8948H81.8428V48.1632H83.4529V39.8948ZM115.442 43.5175C116.332 43.5353 116.442 43.7101 116.442 44.419V48.1642H118.038V44.2877C118.038 43.4425 117.934 43.1374 117.697 42.8293C117.369 42.3929 116.726 42.2033 115.637 42.2033C114.561 42.2033 113.875 42.3119 112.992 42.5617V48.1642H114.604V43.5886C115.027 43.5304 115.102 43.5175 115.442 43.5175ZM87.4351 39.7477C86.4289 39.7477 85.8811 39.9372 85.5589 40.3727C85.3219 40.6817 85.2169 40.9938 85.2169 41.8409V42.5617H84.4175V43.798H85.2169V48.1642H86.8135L86.8093 43.798H88.4007V42.5617H86.8093L86.8135 41.8992C86.8135 41.1409 86.9351 40.9938 88.0016 40.9938C88.1169 40.9938 88.2469 40.9997 88.3851 41.0096L88.6367 39.8217C88.2427 39.7723 87.8394 39.7477 87.4351 39.7477ZM100.245 39.8247C100.793 39.7941 102.018 39.7506 102.786 39.7506C102.926 39.7506 103.072 39.7516 103.217 39.7585C104.727 39.7585 105.593 40.8032 105.593 42.0295C105.593 42.8639 105.191 43.4178 104.248 43.7476C105.357 43.9806 105.938 44.8031 105.938 45.8093C105.938 46.5479 105.719 47.1344 105.317 47.5343C104.795 48.022 104.005 48.2955 102.953 48.2955C102.018 48.2955 100.843 48.2679 100.245 48.2343V39.8247ZM102.786 41.1794C102.52 41.1794 102.19 41.1843 101.864 41.1952V43.1808H102.787C103.153 43.1808 103.447 43.0841 103.647 42.8975C103.839 42.7217 103.938 42.4729 103.938 42.1776C103.938 41.5427 103.577 41.1833 102.904 41.1794H102.786ZM102.819 46.8697H102.889C103.727 46.8697 104.241 46.4462 104.247 45.593C104.239 45.287 104.115 45.0046 103.894 44.8002C103.652 44.5691 103.309 44.4487 102.906 44.4487H101.864V46.8609C102.158 46.8668 102.482 46.8678 102.819 46.8697Z" fill="#EE2A23"/>
</g>
</g>
<defs>
<filter id="filter0_d_66_841" x="0" y="0" width="172" height="139" filterUnits="userSpaceOnUse" color-interpolation-filters="sRGB">
<feFlood flood-opacity="0" result="BackgroundImageFix"/>
<feColorMatrix in="SourceAlpha" type="matrix" values="0 0 0 0 0 0 0 0 0 0 0 0 0 0 0 0 0 0 127 0" result="hardAlpha"/>
<feOffset dy="25"/>
<feGaussianBlur stdDeviation="20"/>
<feColorMatrix type="matrix" values="0 0 0 0 0 0 0 0 0 0 0 0 0 0 0 0 0 0 0.03 0"/>
<feBlend mode="normal" in2="BackgroundImageFix" result="effect1_dropShadow_66_841"/>
<feBlend mode="normal" in="SourceGraphic" in2="effect1_dropShadow_66_841" result="shape"/>
</filter>
</defs>
</svg>
