<svg width="172" height="139" viewBox="0 0 172 139" fill="none" xmlns="http://www.w3.org/2000/svg">
<g id="JCB" filter="url(#filter0_d_66_794)">
<g id="JCB_2">
<rect id="Rectangle" x="40" y="15" width="92" height="59" rx="3" fill="white"/>
<g id="Group">
<path id="Vector" fill-rule="evenodd" clip-rule="evenodd" d="M109.883 55.4924C109.883 59.6037 106.558 62.9375 102.453 62.9375H62.1165V33.5087C62.1165 29.3963 65.4423 26.0625 69.5469 26.0625L109.883 26.0625V55.4924H109.883Z" fill="white"/>
<path id="Vector_2" fill-rule="evenodd" clip-rule="evenodd" d="M96.7328 45.1466H96.7593H96.8105H96.8617H96.913H96.9642H97.0154H97.0667H97.1179H97.1691H97.2203H97.2715H97.3228H97.374H97.4252H97.4764H97.5276H97.5789H97.6301H97.6813H97.7325H97.7838H97.835H97.8862H97.9374H97.9886H98.0398H98.0911H98.1423H98.1935H98.2448H98.296H98.3472H98.3984H98.4496H98.5009H98.5521H98.6033H98.6545H98.7058H98.757H98.8082H98.8594H98.9106H98.9619H99.0131H99.0643H99.1155H99.1667H99.218H99.2692H99.3204H99.3716H99.4229H99.4741H99.5253H99.5765H99.6277H99.679H99.7302H99.7814H99.824L99.8327 45.1468C99.8484 45.1472 99.8657 45.1479 99.8839 45.1489C99.9003 45.1498 99.9175 45.1509 99.9351 45.1523C99.9519 45.1535 99.9691 45.1549 99.9863 45.1565C100.004 45.1581 100.021 45.1598 100.038 45.1617C100.055 45.1637 100.072 45.1657 100.089 45.168C100.107 45.1704 100.124 45.173 100.14 45.1757C100.151 45.1776 100.162 45.1795 100.171 45.1815L100.191 45.1861C100.208 45.1901 100.225 45.1945 100.242 45.1992C100.26 45.2039 100.277 45.209 100.294 45.2144C100.311 45.2199 100.328 45.2257 100.345 45.2319C100.362 45.2382 100.379 45.2448 100.396 45.2517C100.413 45.2587 100.43 45.2662 100.447 45.2739C100.465 45.2819 100.482 45.2901 100.499 45.2987C100.516 45.3075 100.533 45.3167 100.55 45.3262C100.567 45.3359 100.584 45.3461 100.601 45.3566C100.618 45.3675 100.635 45.3786 100.652 45.3901C100.67 45.402 100.687 45.4143 100.703 45.427C100.721 45.4401 100.738 45.4537 100.755 45.4677C100.772 45.4822 100.789 45.4973 100.806 45.5127C100.823 45.5288 100.84 45.5453 100.857 45.5623C100.875 45.5802 100.892 45.5987 100.908 45.6176C100.926 45.6378 100.943 45.6584 100.96 45.6797C100.977 45.7025 100.994 45.726 101.011 45.75C101.029 45.7764 101.046 45.8035 101.062 45.8313C101.08 45.8626 101.097 45.8948 101.113 45.9279C101.132 45.9672 101.149 46.0076 101.164 46.0491C101.185 46.105 101.202 46.1629 101.216 46.2227C101.239 46.3263 101.252 46.4354 101.252 46.5494C101.252 46.6639 101.239 46.7735 101.216 46.8774C101.202 46.9374 101.185 46.9954 101.164 47.0514C101.149 47.0931 101.132 47.1335 101.113 47.1729C101.097 47.206 101.08 47.2383 101.062 47.2696C101.046 47.2975 101.029 47.3245 101.011 47.3509C100.994 47.375 100.977 47.3985 100.96 47.4213C100.943 47.4426 100.926 47.4632 100.908 47.4833C100.892 47.5022 100.875 47.5207 100.857 47.5386C100.84 47.5556 100.823 47.5721 100.806 47.5882C100.789 47.6036 100.772 47.6184 100.755 47.633C100.738 47.6469 100.721 47.6605 100.703 47.6736C100.687 47.6862 100.67 47.6984 100.652 47.7103C100.635 47.7218 100.618 47.7329 100.601 47.7437C100.584 47.7541 100.567 47.7643 100.55 47.774C100.533 47.7834 100.516 47.7925 100.499 47.8013C100.482 47.8098 100.465 47.818 100.447 47.8259C100.43 47.8336 100.413 47.8409 100.396 47.8479C100.379 47.8548 100.362 47.8614 100.345 47.8676C100.328 47.8736 100.311 47.8794 100.294 47.8848C100.277 47.8902 100.26 47.8951 100.242 47.8998C100.225 47.9044 100.208 47.9087 100.191 47.9127L100.171 47.9172C100.162 47.9193 100.151 47.9214 100.14 47.9234C100.124 47.9262 100.107 47.9288 100.089 47.9313C100.072 47.9335 100.055 47.9357 100.038 47.9376C100.021 47.9395 100.004 47.9412 99.9863 47.9427C99.9691 47.9443 99.9519 47.9457 99.9351 47.9469C99.9175 47.9482 99.9003 47.9493 99.8839 47.9501C99.8657 47.9511 99.8484 47.9518 99.8327 47.9521L99.8052 47.9525H99.7814H99.7302H99.679H99.6277H99.5765H99.5253H99.4741H99.4229H99.3716H99.3204H99.2692H99.218H99.1667H99.1155H99.0643H99.0131H98.9619H98.9106H98.8594H98.8082H98.757H98.7058H98.6545H98.6033H98.5521H98.5009H98.4496H98.3984H98.3472H98.296H98.2448H98.1935H98.1423H98.0911H98.0398H97.9886H97.9374H97.8862H97.835H97.7838H97.7325H97.6813H97.6301H97.5789H97.5276H97.4764H97.4252H97.374H97.3228H97.2715H97.2203H97.1691H97.1179H97.0667H97.0154H96.9642H96.913H96.8617H96.8105H96.7593H96.7328V45.1466ZM100.857 41.9709C100.878 42.0651 100.889 42.1649 100.889 42.2699C100.889 42.3748 100.878 42.4745 100.857 42.5686C100.844 42.6291 100.827 42.6872 100.806 42.7429C100.791 42.7836 100.774 42.8229 100.755 42.8609C100.739 42.8928 100.722 42.9237 100.704 42.9536C100.687 42.9801 100.67 43.0058 100.652 43.0307C100.636 43.0535 100.619 43.0755 100.601 43.0969C100.585 43.1168 100.568 43.1361 100.55 43.1549C100.533 43.1725 100.516 43.1896 100.499 43.2061C100.482 43.2219 100.465 43.2371 100.447 43.2519C100.431 43.266 100.414 43.2797 100.396 43.2929C100.379 43.3057 100.362 43.318 100.345 43.3299C100.328 43.3414 100.311 43.3524 100.294 43.3631C100.277 43.3735 100.26 43.3835 100.243 43.3931C100.226 43.4024 100.209 43.4114 100.191 43.42C100.175 43.4285 100.157 43.4365 100.14 43.4442C100.123 43.4517 100.106 43.4589 100.089 43.4657C100.072 43.4724 100.055 43.4787 100.038 43.4847C100.021 43.4906 100.004 43.4962 99.9865 43.5014C99.9695 43.5065 99.9525 43.5114 99.9353 43.5159C99.9183 43.5203 99.9013 43.5244 99.8841 43.5281C99.8671 43.5319 99.85 43.5352 99.8329 43.5382L99.8204 43.5405C99.8104 43.5422 99.7972 43.5442 99.7816 43.5462C99.7665 43.5481 99.7491 43.5501 99.7304 43.5519C99.7142 43.5536 99.6969 43.5552 99.6792 43.5567C99.6624 43.5581 99.6452 43.5593 99.6279 43.5604C99.6108 43.5616 99.5935 43.5625 99.5767 43.5632C99.559 43.5639 99.5418 43.5644 99.5255 43.5644L99.5174 43.5645H99.4743H99.4231H99.3719H99.3207H99.2694H99.2182H99.167H99.1158H99.0645H99.0133H98.9621H98.9109H98.8597H98.8085H98.7572H98.706H98.6548H98.6036H98.5523H98.5011H98.4499H98.3987H98.3475H98.2963H98.245H98.1938H98.1426H98.0914H98.0401H97.9889H97.9377H97.8865H97.8353H97.7841H97.7329H97.6816H97.6304H97.5792H97.5279H97.4767H97.4255H97.3743H97.3231H97.2719H97.2207H97.1694H97.1182H97.067H97.0157H96.9645H96.9133H96.8621H96.8109H96.7597H96.7328V40.9752H96.7597H96.8109H96.8621H96.9133H96.9645H97.0157H97.067H97.1182H97.1694H97.2207H97.2719H97.3231H97.3743H97.4255H97.4767H97.5279H97.5792H97.6304H97.6816H97.7329H97.7841H97.8353H97.8865H97.9377H97.9889H98.0401H98.0914H98.1426H98.1938H98.245H98.2963H98.3475H98.3987H98.4499H98.5011H98.5523H98.6036H98.6548H98.706H98.7572H98.8085H98.8597H98.9109H98.9621H99.0133H99.0645H99.1158H99.167H99.2182H99.2694H99.3207H99.3719H99.4231H99.4743H99.5255H99.5471L99.5767 40.9762C99.5935 40.9769 99.6108 40.9779 99.6279 40.979C99.6452 40.9801 99.6624 40.9814 99.6792 40.9827C99.6969 40.9842 99.7142 40.9858 99.7304 40.9874C99.7491 40.9892 99.7665 40.991 99.7816 40.9928C99.7972 40.9946 99.8104 40.9963 99.8204 40.9977L99.8329 40.9999C99.85 41.003 99.8671 41.0065 99.8841 41.0103C99.9013 41.0141 99.9183 41.0182 99.9353 41.0226C99.9525 41.0272 99.9695 41.032 99.9865 41.0372C100.004 41.0425 100.021 41.0481 100.038 41.054C100.055 41.06 100.072 41.0664 100.089 41.0732C100.106 41.08 100.123 41.0872 100.14 41.0948C100.157 41.1025 100.175 41.1106 100.191 41.119C100.209 41.1276 100.226 41.1366 100.243 41.146C100.26 41.1556 100.277 41.1656 100.294 41.176C100.311 41.1867 100.328 41.1977 100.345 41.2093C100.362 41.2211 100.379 41.2336 100.396 41.2463C100.414 41.2595 100.431 41.2732 100.447 41.2873C100.465 41.3021 100.482 41.3174 100.499 41.3332C100.516 41.3497 100.533 41.3668 100.55 41.3844C100.568 41.4031 100.585 41.4225 100.601 41.4424C100.619 41.4638 100.636 41.4859 100.652 41.5086C100.67 41.5335 100.687 41.5592 100.704 41.5857C100.722 41.6156 100.739 41.6465 100.755 41.6784C100.774 41.7164 100.791 41.7558 100.806 41.7965C100.827 41.8522 100.844 41.9104 100.857 41.9709ZM107.209 28.5445H107.23L107.23 55.1372C107.23 55.296 107.223 55.4532 107.209 55.6085C107.197 55.7452 107.18 55.8805 107.158 56.014C107.143 56.1038 107.126 56.1927 107.107 56.2808C107.091 56.3525 107.074 56.4237 107.056 56.4943C107.04 56.5553 107.023 56.6157 107.005 56.6757C106.988 56.73 106.971 56.7841 106.953 56.8376C106.937 56.8862 106.92 56.9344 106.902 56.9823C106.886 57.0269 106.868 57.0713 106.851 57.1153C106.834 57.1567 106.817 57.1978 106.8 57.2387C106.783 57.2775 106.766 57.316 106.748 57.3542C106.732 57.3906 106.715 57.4269 106.697 57.4628C106.68 57.4973 106.663 57.5316 106.646 57.5657C106.629 57.5983 106.612 57.6308 106.595 57.663C106.578 57.694 106.561 57.7247 106.543 57.7553C106.527 57.785 106.51 57.8144 106.492 57.8437C106.475 57.8722 106.458 57.9005 106.441 57.9287C106.424 57.9561 106.407 57.9835 106.39 58.0106C106.373 58.0368 106.356 58.0628 106.339 58.0886C106.322 58.1139 106.305 58.1388 106.287 58.1637C106.27 58.1882 106.253 58.2126 106.236 58.2368C106.219 58.2603 106.202 58.2838 106.185 58.3071C106.168 58.3298 106.151 58.3523 106.134 58.3747C106.117 58.3968 106.1 58.4188 106.082 58.4406C106.065 58.462 106.048 58.4832 106.031 58.5043C106.014 58.525 105.997 58.5454 105.98 58.5658C105.963 58.586 105.946 58.6062 105.929 58.6261C105.912 58.6456 105.895 58.6648 105.877 58.684C105.861 58.7029 105.843 58.7218 105.826 58.7405C105.809 58.759 105.792 58.7774 105.775 58.7956C105.758 58.8135 105.741 58.831 105.724 58.8487C105.707 58.8662 105.69 58.8839 105.673 58.9011C105.656 58.918 105.638 58.9346 105.621 58.9512C105.604 58.9678 105.587 58.9844 105.57 59.0007C105.553 59.0168 105.536 59.0326 105.519 59.0485C105.502 59.0642 105.485 59.0798 105.468 59.0952C105.451 59.1105 105.434 59.1257 105.416 59.1407C105.399 59.1556 105.382 59.1704 105.365 59.185C105.348 59.1996 105.331 59.2141 105.314 59.2284C105.297 59.2426 105.28 59.2565 105.263 59.2704C105.246 59.2842 105.229 59.298 105.211 59.3117C105.195 59.3251 105.177 59.3383 105.16 59.3515C105.143 59.3647 105.126 59.3779 105.109 59.3908C105.092 59.4036 105.075 59.4161 105.058 59.4287C105.041 59.4412 105.024 59.4539 105.007 59.4662C104.99 59.4784 104.972 59.4902 104.955 59.5021C104.938 59.5141 104.921 59.5261 104.904 59.5378C104.887 59.5493 104.87 59.5606 104.853 59.572C104.836 59.5833 104.819 59.5947 104.802 59.6058C104.785 59.6168 104.768 59.6277 104.75 59.6385C104.733 59.6492 104.716 59.66 104.699 59.6705C104.682 59.681 104.665 59.6913 104.648 59.7016L104.597 59.732C104.58 59.742 104.563 59.7519 104.546 59.7617C104.529 59.7714 104.511 59.7809 104.494 59.7904C104.477 59.7999 104.46 59.8095 104.443 59.8188C104.426 59.828 104.409 59.8369 104.392 59.8459C104.375 59.8549 104.358 59.8641 104.341 59.873C104.324 59.8817 104.306 59.89 104.289 59.8986C104.272 59.9071 104.255 59.9157 104.238 59.924C104.221 59.9323 104.204 59.9404 104.187 59.9485L104.136 59.9725L104.084 59.9957C104.067 60.0033 104.05 60.0107 104.033 60.0182C104.016 60.0256 103.999 60.0332 103.982 60.0404C103.965 60.0476 103.948 60.0544 103.931 60.0614C103.914 60.0684 103.897 60.0756 103.88 60.0824C103.862 60.0892 103.845 60.0956 103.828 60.1022C103.811 60.1087 103.794 60.1153 103.777 60.1217L103.726 60.1406C103.709 60.1468 103.692 60.1527 103.675 60.1587C103.657 60.1647 103.641 60.1709 103.623 60.1767C103.606 60.1825 103.589 60.1878 103.572 60.1934L103.521 60.21C103.504 60.2154 103.487 60.2206 103.47 60.2259L103.418 60.2411C103.401 60.2462 103.384 60.2513 103.367 60.2562C103.35 60.261 103.333 60.2654 103.316 60.2701C103.299 60.2747 103.282 60.2795 103.265 60.2839L103.214 60.2969L103.162 60.3094L103.111 60.3216C103.094 60.3256 103.077 60.3291 103.06 60.3328C103.043 60.3366 103.026 60.3404 103.009 60.344L102.957 60.3543L102.906 60.3641C102.889 60.3673 102.872 60.3707 102.855 60.3738C102.838 60.3768 102.821 60.3794 102.804 60.3823L102.752 60.3908L102.701 60.3985L102.65 60.4057C102.633 60.408 102.616 60.4106 102.599 60.4129C102.582 60.415 102.565 60.4167 102.548 60.4187C102.53 60.4207 102.513 60.4228 102.496 60.4246C102.479 60.4264 102.462 60.4283 102.445 60.43C102.428 60.4316 102.411 60.433 102.394 60.4345C102.377 60.436 102.36 60.4377 102.343 60.4391C102.326 60.4404 102.308 60.4415 102.291 60.4426L102.24 60.4459C102.223 60.4469 102.206 60.4481 102.189 60.449C102.172 60.4498 102.155 60.4503 102.138 60.4509L102.086 60.4529L102.035 60.4542C102.018 60.4546 102.001 60.4546 101.984 60.4549L101.933 60.4555L101.922 60.4557H101.882H101.83H101.779H101.728H101.677H101.625H101.574H101.523H101.472H101.42H101.369H101.318H101.267H101.216H101.164H101.113H101.062H101.011H100.959H100.908H100.857H100.806H100.754H100.703H100.652H100.601H100.55H100.498H100.447H100.396H100.345H100.293H100.242H100.191H100.14H100.088H100.037H99.986H99.9348H99.8836H99.8323H99.7811H99.7299H99.6786H99.6274H99.5762H99.5249H99.4737H99.4225H99.3712H99.32H99.2688H99.2176H99.1663H99.1151H99.0639H99.0126H98.9614H98.9102H98.859H98.8077H98.7565H98.7052H98.654H98.6028H98.5516H98.5003H98.4491H98.3979H98.3466H98.2954H98.2442H98.193H98.1417H98.0905H98.0393H97.988H97.9368H97.8856H97.8343H97.7831H97.7319H97.6806H97.6294H97.5782H97.527H97.4757H97.4245H97.3733H97.3221H97.2708H97.2196H97.1683H97.1171H97.0659H97.0146H96.9634H96.9122H96.861H96.8097H96.7585H96.7073H96.6561H96.6048H96.5536H96.5024H96.4511H96.3999H96.3486H96.2974H96.2462H96.195H96.1437H96.0925H96.0413H95.9901H95.9388H95.8876H95.8364H95.7851H95.7339H95.6827H95.6315H95.5802H95.529H95.4777H95.4265H95.3753H95.3241H95.2728H95.2216H95.1704H95.1191H95.0679H95.0167H94.9655H94.9142H94.863H94.8118H94.7605H94.7093H94.6581H94.6068H94.5556H94.5044H94.4531H94.4019H94.3507H94.2995H94.2482H94.1377V49.6129H94.2482H94.2995H94.3507H94.4019H94.4531H94.5044H94.5556H94.6068H94.6581H94.7093H94.7605H94.8118H94.863H94.9142H94.9655H95.0167H95.0679H95.1191H95.1704H95.2216H95.2728H95.3241H95.3753H95.4265H95.4777H95.529H95.5802H95.6315H95.6827H95.7339H95.7851H95.8364H95.8876H95.9388H95.9901H96.0413H96.0925H96.1437H96.195H96.2462H96.2974H96.3486H96.3999H96.4511H96.5024H96.5536H96.6048H96.6561H96.7073H96.7585H96.8097H96.861H96.9122H96.9634H97.0146H97.0659H97.1171H97.1683H97.2196H97.2708H97.3221H97.3733H97.4245H97.4757H97.527H97.5782H97.6294H97.6806H97.7319H97.7831H97.8343H97.8856H97.9368H97.988H98.0393H98.0905H98.1417H98.193H98.2442H98.2954H98.3466H98.3979H98.4491H98.5003H98.5516H98.6028H98.654H98.7052H98.7565H98.8077H98.859H98.9102H98.9614H99.0126H99.0639H99.1151H99.1663H99.2176H99.2688H99.32H99.3712H99.4225H99.4737H99.5249H99.5762H99.6274H99.6786H99.7299H99.7811H99.8323H99.8836H99.9348H99.986H100.037H100.088H100.14H100.191H100.242H100.293H100.345H100.396H100.447H100.498H100.55H100.601H100.652H100.703H100.754H100.806H100.857H100.908H100.959H101.011H101.062H101.113H101.164H101.216H101.267H101.318H101.369H101.42H101.472H101.523H101.574H101.625H101.677H101.728H101.779H101.83H101.882H101.933H101.984H102.035H102.086H102.138H102.189H102.24H102.291H102.343H102.37L102.394 49.6127L102.445 49.6123L102.496 49.6112C102.513 49.6108 102.53 49.6105 102.548 49.6099C102.565 49.6093 102.582 49.6085 102.599 49.6078L102.65 49.6054L102.701 49.6023L102.752 49.5987L102.804 49.5947L102.855 49.59C102.872 49.5884 102.889 49.5868 102.906 49.585C102.923 49.5833 102.94 49.5812 102.957 49.5792L103.009 49.573C103.026 49.5708 103.043 49.5686 103.06 49.5662C103.077 49.5639 103.094 49.5612 103.111 49.5587C103.128 49.5561 103.145 49.5535 103.162 49.5508L103.214 49.5421L103.265 49.5329C103.282 49.5297 103.299 49.5266 103.316 49.5232C103.333 49.5198 103.35 49.5162 103.367 49.5126L103.418 49.5015C103.436 49.4977 103.453 49.4938 103.47 49.4898C103.487 49.4858 103.504 49.4815 103.521 49.4772C103.538 49.473 103.555 49.4686 103.572 49.4642C103.589 49.4597 103.606 49.4551 103.623 49.4504C103.641 49.4457 103.658 49.4407 103.675 49.4358C103.692 49.4308 103.709 49.4257 103.726 49.4205L103.777 49.4044C103.794 49.3989 103.811 49.3932 103.828 49.3875C103.845 49.3817 103.863 49.3759 103.88 49.3699C103.897 49.3639 103.914 49.3578 103.931 49.3516C103.948 49.3453 103.965 49.3386 103.982 49.3321C103.999 49.3254 104.016 49.3187 104.033 49.3119C104.05 49.3049 104.067 49.298 104.084 49.2909C104.102 49.2836 104.119 49.2762 104.136 49.2688C104.153 49.2612 104.17 49.2534 104.187 49.2456C104.204 49.2377 104.221 49.2297 104.238 49.2216C104.255 49.2134 104.272 49.2051 104.289 49.1966C104.307 49.188 104.324 49.1792 104.341 49.1703C104.358 49.1614 104.375 49.1521 104.392 49.1429C104.409 49.1335 104.426 49.124 104.443 49.1143C104.46 49.1045 104.477 49.0946 104.494 49.0845C104.511 49.0743 104.529 49.064 104.546 49.0535C104.563 49.0427 104.58 49.0319 104.597 49.0208C104.614 49.0096 104.631 48.9982 104.648 48.9867C104.665 48.975 104.682 48.9631 104.699 48.951C104.716 48.9387 104.734 48.9263 104.75 48.9137C104.768 48.9009 104.785 48.8878 104.802 48.8746C104.819 48.8611 104.836 48.8475 104.853 48.8337C104.87 48.8195 104.887 48.8052 104.904 48.7907C104.921 48.7758 104.938 48.7606 104.955 48.7453C104.973 48.7296 104.99 48.7137 105.007 48.6976C105.024 48.681 105.041 48.6642 105.058 48.6472C105.075 48.6296 105.092 48.6118 105.109 48.5937C105.126 48.5751 105.143 48.5562 105.16 48.5371C105.178 48.5172 105.195 48.4971 105.211 48.4767C105.229 48.4555 105.246 48.434 105.263 48.4122C105.28 48.3894 105.297 48.3665 105.314 48.3431C105.332 48.3183 105.349 48.2931 105.365 48.2677C105.383 48.2407 105.4 48.2134 105.416 48.1857C105.434 48.156 105.451 48.1258 105.468 48.0953C105.485 48.062 105.503 48.0284 105.519 47.9943C105.537 47.9561 105.554 47.9173 105.57 47.878C105.588 47.8329 105.606 47.7872 105.621 47.7406C105.641 47.6833 105.658 47.6248 105.673 47.5653C105.694 47.4783 105.712 47.3889 105.724 47.2975C105.739 47.1865 105.746 47.0724 105.746 46.9552C105.746 46.841 105.739 46.7302 105.724 46.6225C105.712 46.534 105.694 46.4478 105.673 46.3638C105.658 46.3066 105.641 46.2505 105.621 46.1954C105.606 46.1503 105.589 46.1058 105.57 46.0621C105.554 46.0243 105.537 45.987 105.519 45.9503C105.503 45.9173 105.485 45.8848 105.468 45.8527C105.451 45.8232 105.434 45.794 105.416 45.7653C105.4 45.7386 105.383 45.7123 105.365 45.6863C105.349 45.6618 105.332 45.6375 105.314 45.6136C105.297 45.5911 105.28 45.5689 105.263 45.547C105.246 45.5259 105.229 45.5052 105.211 45.4847C105.195 45.4651 105.178 45.4456 105.16 45.4264C105.143 45.4079 105.126 45.3897 105.109 45.3717C105.092 45.3543 105.075 45.3372 105.058 45.3203C105.041 45.3039 105.024 45.2876 105.007 45.2716C104.99 45.2561 104.973 45.2408 104.955 45.2256C104.938 45.2109 104.921 45.1963 104.904 45.1819C104.887 45.1679 104.87 45.154 104.853 45.1403C104.836 45.1269 104.819 45.1137 104.802 45.1007C104.785 45.0879 104.768 45.0754 104.75 45.0629C104.734 45.0507 104.716 45.0387 104.699 45.0268C104.682 45.0152 104.665 45.0037 104.648 44.9923C104.631 44.9812 104.614 44.9702 104.597 44.9593C104.58 44.9487 104.563 44.9381 104.546 44.9277C104.529 44.9176 104.511 44.9075 104.494 44.8976C104.477 44.8879 104.46 44.8783 104.443 44.8688C104.426 44.8594 104.409 44.8502 104.392 44.8412C104.375 44.8322 104.358 44.8233 104.341 44.8146C104.324 44.806 104.307 44.7974 104.289 44.789C104.272 44.7808 104.255 44.7726 104.238 44.7645C104.221 44.7566 104.204 44.7489 104.187 44.7413C104.17 44.7337 104.153 44.7262 104.136 44.7189C104.119 44.7116 104.102 44.7044 104.084 44.6974C104.067 44.6904 104.05 44.6834 104.033 44.6767C104.016 44.67 103.999 44.6634 103.982 44.6569C103.965 44.6505 103.948 44.6444 103.931 44.6382C103.914 44.632 103.897 44.6261 103.88 44.6201C103.862 44.6142 103.845 44.6084 103.828 44.6027C103.811 44.5971 103.794 44.5916 103.777 44.5862C103.76 44.5809 103.743 44.5757 103.726 44.5705L103.675 44.5554C103.658 44.5506 103.641 44.5457 103.623 44.541C103.606 44.5363 103.589 44.5319 103.572 44.5275C103.555 44.523 103.538 44.5188 103.521 44.5145C103.504 44.5103 103.487 44.5061 103.47 44.5021C103.453 44.4981 103.436 44.4943 103.418 44.4905C103.401 44.4867 103.384 44.4831 103.367 44.4795C103.35 44.4759 103.333 44.4724 103.316 44.469L103.265 44.4592L103.214 44.45C103.196 44.447 103.179 44.4441 103.162 44.4413L103.111 44.4332C103.094 44.4306 103.077 44.4282 103.06 44.4258L103.009 44.4188L102.957 44.4123L102.906 44.4065L102.855 44.4011L102.804 44.3964L102.752 44.3921L102.705 44.3884L102.705 44.3269L102.752 44.3195L102.804 44.3111C102.821 44.3081 102.838 44.3052 102.855 44.3021L102.906 44.2922C102.923 44.2888 102.94 44.2853 102.957 44.2817L103.009 44.2705C103.026 44.2666 103.043 44.2627 103.06 44.2586C103.077 44.2544 103.094 44.2501 103.111 44.2457C103.128 44.2414 103.145 44.2368 103.162 44.2322C103.179 44.2275 103.197 44.2227 103.214 44.2178C103.231 44.2129 103.248 44.2079 103.265 44.2028C103.282 44.1976 103.299 44.1922 103.316 44.1868C103.333 44.1812 103.35 44.1755 103.367 44.1698C103.384 44.164 103.401 44.158 103.418 44.1519C103.436 44.1458 103.453 44.1396 103.47 44.1332C103.487 44.1267 103.504 44.1202 103.521 44.1135C103.538 44.1067 103.555 44.0998 103.572 44.0928C103.589 44.0856 103.606 44.0784 103.623 44.071C103.641 44.0635 103.658 44.0558 103.675 44.048C103.692 44.0402 103.709 44.0321 103.726 44.0239C103.743 44.0156 103.76 44.0071 103.777 43.9986C103.794 43.9899 103.811 43.981 103.828 43.972C103.845 43.9629 103.863 43.9536 103.88 43.9442C103.897 43.9346 103.914 43.9248 103.931 43.9149C103.948 43.9049 103.965 43.8946 103.982 43.8842C103.999 43.8736 104.016 43.8629 104.033 43.852C104.05 43.8409 104.068 43.8296 104.084 43.8181C104.102 43.8064 104.119 43.7945 104.136 43.7825C104.153 43.7702 104.17 43.7577 104.187 43.7451C104.204 43.7321 104.221 43.719 104.238 43.7057C104.255 43.692 104.273 43.6782 104.289 43.6641C104.307 43.6497 104.324 43.635 104.341 43.6202C104.358 43.6048 104.375 43.5893 104.392 43.5736C104.409 43.5574 104.426 43.541 104.443 43.5244C104.46 43.5072 104.478 43.4898 104.494 43.4722C104.512 43.4539 104.529 43.4353 104.546 43.4165C104.563 43.3969 104.58 43.3771 104.597 43.357C104.614 43.3361 104.631 43.3148 104.648 43.2933C104.665 43.2706 104.683 43.2476 104.699 43.2244C104.717 43.1998 104.734 43.1748 104.75 43.1497C104.768 43.1228 104.785 43.0956 104.802 43.0681C104.819 43.0383 104.837 43.0081 104.853 42.9776C104.871 42.944 104.888 42.9101 104.904 42.8757C104.922 42.8371 104.939 42.7979 104.955 42.7584C104.974 42.7122 104.991 42.6655 105.007 42.6181C105.026 42.5586 105.043 42.4981 105.058 42.4368C105.081 42.3374 105.099 42.236 105.109 42.1327C105.117 42.0513 105.122 41.9688 105.122 41.8854C105.122 41.7974 105.117 41.7116 105.109 41.6279C105.098 41.5209 105.081 41.4176 105.058 41.3179C105.043 41.2556 105.026 41.1947 105.007 41.1353C104.991 41.0878 104.974 41.0412 104.955 40.9955C104.939 40.9561 104.922 40.9175 104.904 40.8795C104.888 40.8457 104.871 40.8123 104.853 40.7796C104.836 40.7496 104.819 40.7201 104.802 40.691C104.785 40.6639 104.768 40.6373 104.75 40.6111C104.734 40.5865 104.717 40.5624 104.699 40.5385C104.683 40.516 104.665 40.4937 104.648 40.4718C104.631 40.4509 104.614 40.4302 104.597 40.4098C104.58 40.3904 104.563 40.3714 104.546 40.3526C104.529 40.3345 104.512 40.3166 104.494 40.2989C104.477 40.2819 104.46 40.2651 104.443 40.2486C104.426 40.2326 104.409 40.2167 104.392 40.2011C104.375 40.186 104.358 40.1711 104.341 40.1564C104.324 40.1421 104.307 40.1279 104.289 40.114C104.272 40.1005 104.255 40.0871 104.238 40.0739C104.221 40.0611 104.204 40.0485 104.187 40.036C104.17 40.0238 104.153 40.0118 104.136 39.9999C104.119 39.9883 104.102 39.9769 104.084 39.9657C104.068 39.9546 104.05 39.9437 104.033 39.933C104.016 39.9225 103.999 39.9121 103.982 39.9019C103.965 39.8919 103.948 39.882 103.931 39.8723C103.914 39.8627 103.897 39.8532 103.88 39.844C103.863 39.8348 103.845 39.8259 103.828 39.817C103.811 39.8083 103.794 39.7997 103.777 39.7912C103.76 39.7829 103.743 39.7746 103.726 39.7665C103.709 39.7586 103.692 39.7507 103.675 39.743C103.658 39.7355 103.641 39.7282 103.623 39.7208C103.606 39.7136 103.589 39.7065 103.572 39.6994C103.555 39.6925 103.538 39.6857 103.521 39.6791C103.504 39.6725 103.487 39.6659 103.47 39.6595C103.453 39.6532 103.436 39.6471 103.418 39.641C103.401 39.635 103.384 39.6292 103.367 39.6234C103.35 39.6177 103.333 39.6121 103.316 39.6066C103.299 39.6012 103.282 39.5958 103.265 39.5906C103.248 39.5854 103.231 39.5802 103.214 39.5752C103.197 39.5703 103.179 39.5656 103.162 39.5609C103.145 39.5562 103.128 39.5517 103.111 39.5472L103.06 39.5342C103.043 39.53 103.026 39.5258 103.009 39.5218C102.992 39.5179 102.975 39.5141 102.957 39.5103L102.906 39.4994C102.889 39.4959 102.872 39.4923 102.855 39.489C102.838 39.4856 102.821 39.4826 102.804 39.4794L102.752 39.4704C102.735 39.4675 102.718 39.4646 102.701 39.4619L102.65 39.4541L102.599 39.4468L102.548 39.44L102.496 39.4339L102.445 39.4284L102.394 39.4233L102.343 39.4188L102.291 39.4148L102.24 39.4111L102.189 39.4082L102.169 39.4071L102.138 39.4051L102.086 39.4021L102.035 39.3993L101.984 39.3966L101.933 39.3941L101.882 39.3919L101.83 39.39L101.779 39.3885L101.728 39.3873L101.677 39.3866L101.648 39.3865H101.625H101.574H101.523H101.472H101.42H101.369H101.318H101.267H101.216H101.164H101.113H101.062H101.011H100.959H100.908H100.857H100.806H100.754H100.703H100.652H100.601H100.55H100.498H100.447H100.396H100.345H100.293H100.242H100.191H100.14H100.088H100.037H99.986H99.9348H99.8836H99.8323H99.7811H99.7299H99.6786H99.6274H99.5762H99.5249H99.4737H99.4225H99.3712H99.32H99.2688H99.2176H99.1663H99.1151H99.0639H99.0126H98.9614H98.9102H98.859H98.8077H98.7565H98.7052H98.654H98.6028H98.5516H98.5003H98.4491H98.3979H98.3466H98.2954H98.2442H98.193H98.1417H98.0905H98.0393H97.988H97.9368H97.8856H97.8343H97.7831H97.7319H97.6806H97.6294H97.5782H97.527H97.4757H97.4245H97.3733H97.3221H97.2708H97.2196H97.1683H97.1171H97.0659H97.0146H96.9634H96.9122H96.861H96.8097H96.7585H96.7073H96.6561H96.6048H96.5536H96.5024H96.4511H96.3999H96.3486H96.2974H96.2462H96.195H96.1437H96.0925H96.0413H95.9901H95.9388H95.8876H95.8364H95.7851H95.7339H95.6827H95.6315H95.5802H95.529H95.4777H95.4265H95.3753H95.3241H95.2728H95.2216H95.1704H95.1191H95.0679H95.0167H94.9655H94.9142H94.863H94.8118H94.7605H94.7093H94.6581H94.6068H94.5556H94.5044H94.4531H94.4019H94.3507H94.2995H94.2482H94.1377V33.8635C94.1377 33.4919 94.1759 33.1293 94.2482 32.7793C94.2638 32.7043 94.2809 32.63 94.2995 32.5562C94.3154 32.4931 94.3325 32.4305 94.3507 32.3683C94.3669 32.3128 94.384 32.2577 94.4019 32.2029C94.4183 32.1529 94.4353 32.1031 94.4531 32.0538C94.4697 32.008 94.4866 31.9624 94.5044 31.9173C94.521 31.8751 94.538 31.8331 94.5556 31.7914C94.5723 31.7521 94.5893 31.713 94.6068 31.6741C94.6235 31.6372 94.6406 31.6006 94.6581 31.5642C94.6747 31.5294 94.6919 31.4949 94.7093 31.4606C94.726 31.4275 94.7432 31.3948 94.7605 31.3622C94.7773 31.3307 94.7944 31.2995 94.8118 31.2684C94.8286 31.2383 94.8456 31.2084 94.863 31.1787C94.8799 31.1498 94.8968 31.1211 94.9142 31.0927C94.9311 31.065 94.9481 31.0376 94.9655 31.0104C94.9822 30.984 94.9994 30.9578 95.0167 30.9317C95.0336 30.9062 95.0506 30.8807 95.0679 30.8555C95.0849 30.8308 95.1018 30.8061 95.1191 30.7816C95.136 30.758 95.1532 30.7346 95.1704 30.7113C95.1872 30.6883 95.2044 30.6655 95.2216 30.6428C95.2386 30.6205 95.2555 30.5981 95.2728 30.576C95.2897 30.5546 95.3069 30.5335 95.3241 30.5123C95.341 30.4914 95.3581 30.4707 95.3753 30.4501C95.3923 30.4297 95.4093 30.4094 95.4265 30.3893C95.4434 30.3697 95.4606 30.3505 95.4777 30.3312C95.4948 30.3121 95.5117 30.2929 95.529 30.274C95.5459 30.2555 95.563 30.2371 95.5802 30.2188C95.5971 30.2008 95.6143 30.1829 95.6315 30.1651C95.6484 30.1475 95.6654 30.1299 95.6827 30.1126C95.6996 30.0955 95.7168 30.0787 95.7339 30.0619C95.7509 30.0452 95.7678 30.0283 95.7851 30.0118C95.802 29.9957 95.8193 29.9799 95.8364 29.964C95.8534 29.9482 95.8704 29.9323 95.8876 29.9167C95.9046 29.9013 95.9217 29.8863 95.9388 29.8712C95.9558 29.8562 95.9729 29.8411 95.9901 29.8263C96.0071 29.8117 96.0241 29.7974 96.0413 29.783C96.0583 29.7687 96.0753 29.7545 96.0925 29.7405C96.1095 29.7266 96.1266 29.7128 96.1437 29.6992L96.195 29.6588L96.2462 29.6195C96.2632 29.6066 96.2803 29.5938 96.2974 29.5811C96.3144 29.5685 96.3315 29.556 96.3486 29.5437L96.3999 29.5072C96.4169 29.4952 96.434 29.4834 96.4511 29.4716L96.5024 29.4369L96.5536 29.403C96.5706 29.3919 96.5877 29.3809 96.6048 29.37L96.6561 29.3379C96.6731 29.3273 96.6901 29.3167 96.7073 29.3063C96.7243 29.296 96.7414 29.286 96.7585 29.2759C96.7756 29.2659 96.7925 29.2557 96.8097 29.2458C96.8267 29.2361 96.8439 29.2267 96.861 29.2171C96.878 29.2075 96.895 29.1978 96.9122 29.1884C96.9292 29.1792 96.9464 29.1703 96.9634 29.1612C96.9805 29.1521 96.9975 29.143 97.0146 29.1341C97.0316 29.1253 97.0488 29.1168 97.0659 29.1082C97.0829 29.0996 97.1 29.091 97.1171 29.0827L97.1683 29.0579C97.1854 29.0497 97.2025 29.0418 97.2196 29.0339C97.2367 29.0259 97.2537 29.0179 97.2708 29.0102C97.2878 29.0025 97.305 28.9952 97.3221 28.9877C97.3391 28.9802 97.3561 28.9726 97.3733 28.9653C97.3902 28.958 97.4074 28.9511 97.4245 28.9441C97.4415 28.9371 97.4586 28.93 97.4757 28.9231L97.527 28.9029L97.5782 28.8834C97.5953 28.8769 97.6123 28.8703 97.6294 28.8641C97.6464 28.8579 97.6636 28.8521 97.6806 28.846C97.6977 28.84 97.7147 28.8338 97.7319 28.8279C97.7489 28.8221 97.766 28.8166 97.7831 28.811L97.8343 28.7943C97.8514 28.7889 97.8684 28.7834 97.8856 28.7781C97.9026 28.7729 97.9197 28.7679 97.9368 28.7629C97.9539 28.7578 97.9709 28.7525 97.988 28.7476C98.005 28.7428 98.0222 28.7382 98.0393 28.7336C98.0563 28.7289 98.0733 28.7242 98.0905 28.7196L98.1417 28.7064C98.1587 28.7021 98.1758 28.698 98.193 28.6939C98.21 28.6897 98.227 28.6853 98.2442 28.6814C98.2612 28.6774 98.2783 28.6739 98.2954 28.6701L98.3466 28.6589L98.3979 28.6483C98.4149 28.6449 98.432 28.6417 98.4491 28.6385C98.4662 28.6352 98.4832 28.6317 98.5003 28.6286C98.5174 28.6255 98.5345 28.6229 98.5516 28.62L98.6028 28.6115C98.6199 28.6087 98.6369 28.6059 98.654 28.6034C98.6711 28.6008 98.6882 28.5986 98.7052 28.5962C98.7224 28.5938 98.7393 28.5912 98.7565 28.589C98.7735 28.5868 98.7906 28.5848 98.8077 28.5828L98.859 28.5769C98.876 28.575 98.893 28.5729 98.9102 28.5712C98.9272 28.5695 98.9443 28.5682 98.9614 28.5667L99.0126 28.5621L99.0639 28.5583C99.0809 28.557 99.098 28.5561 99.1151 28.555C99.1321 28.554 99.1492 28.5527 99.1663 28.5518C99.1833 28.5509 99.2005 28.5504 99.2176 28.5496L99.2688 28.5477C99.2859 28.5472 99.3029 28.5464 99.32 28.5461C99.3371 28.5457 99.3542 28.5456 99.3712 28.5454C99.3883 28.5451 99.4054 28.5448 99.4225 28.5447L99.4353 28.5446H99.4737H99.5249H99.5762H99.6274H99.6786H99.7299H99.7811H99.8323H99.8836H99.9348H99.986H100.037H100.088H100.14H100.191H100.242H100.293H100.345H100.396H100.447H100.498H100.55H100.601H100.652H100.703H100.754H100.806H100.857H100.908H100.959H101.011H101.062H101.113H101.164H101.216H101.267H101.318H101.369H101.42H101.472H101.523H101.574H101.625H101.677H101.728H101.779H101.83H101.882H101.933H101.984H102.035H102.086H102.138H102.189H102.24H102.291H102.343H102.394H102.445H102.496H102.548H102.599H102.65H102.701H102.752H102.804H102.855H102.906H102.957H103.009H103.06H103.111H103.162H103.214H103.265H103.316H103.367H103.418H103.47H103.521H103.572H103.623H103.675H103.726H103.777H103.828H103.88H103.931H103.982H104.033H104.084H104.136H104.187H104.238H104.289H104.341H104.392H104.443H104.494H104.546H104.597H104.648H104.699H104.75H104.802H104.853H104.904H104.955H105.007H105.058H105.109H105.16H105.211H105.263H105.314H105.365H105.416H105.468H105.519H105.57H105.621H105.673H105.724H105.775H105.826H105.877H105.929H105.98H106.031H106.082H106.134H106.185H106.236H106.287H106.339H106.39H106.441H106.492H106.543H106.595H106.646H106.697H106.748H106.8H106.851H106.902H106.953H107.005H107.056H107.107H107.158H107.209V28.5445Z" fill="url(#paint0_linear_66_794)"/>
<path id="Vector_3" fill-rule="evenodd" clip-rule="evenodd" d="M64.8796 47.0513C64.843 47.0338 64.8064 47.0162 64.7698 46.9985V33.8634C64.7698 33.4929 64.8077 33.1313 64.8796 32.7822C64.8951 32.7072 64.9122 32.6329 64.9308 32.5591C64.9467 32.4959 64.9638 32.4333 64.9819 32.371C64.9981 32.3155 65.0152 32.2605 65.033 32.2058C65.0494 32.1557 65.0664 32.1058 65.0842 32.0564C65.1007 32.0107 65.1176 31.9652 65.1353 31.92C65.1518 31.8778 65.1689 31.8357 65.1865 31.794C65.2031 31.7547 65.2201 31.7157 65.2376 31.6769C65.2542 31.64 65.2713 31.6034 65.2887 31.567C65.3054 31.5322 65.3225 31.4976 65.3399 31.4632C65.3566 31.4302 65.3736 31.3975 65.391 31.3649C65.4077 31.3334 65.4248 31.3022 65.4421 31.2711C65.4589 31.2411 65.4759 31.2112 65.4933 31.1815C65.5101 31.1526 65.5271 31.1238 65.5444 31.0953C65.5612 31.0678 65.5783 31.0404 65.5956 31.0132C65.6123 30.9868 65.6295 30.9606 65.6467 30.9345C65.6636 30.909 65.6806 30.8835 65.6978 30.8583C65.7148 30.8336 65.7316 30.8088 65.749 30.7844C65.7658 30.7608 65.783 30.7374 65.8001 30.7141C65.817 30.6911 65.834 30.6683 65.8513 30.6456C65.8682 30.6233 65.8851 30.6009 65.9024 30.5788C65.9192 30.5574 65.9364 30.5364 65.9535 30.5152C65.9704 30.4943 65.9875 30.4735 66.0047 30.4529C66.0216 30.4326 66.0386 30.4123 66.0558 30.3923C66.0727 30.3727 66.0898 30.3534 66.107 30.334C66.1239 30.3149 66.1409 30.2957 66.1581 30.2768C66.175 30.2583 66.1921 30.2401 66.2092 30.2218C66.2262 30.2037 66.2432 30.1858 66.2604 30.168C66.2773 30.1504 66.2943 30.1328 66.3115 30.1155C66.3284 30.0984 66.3456 30.0816 66.3627 30.0648C66.3797 30.0481 66.3966 30.0312 66.4138 30.0148C66.4307 29.9987 66.4479 29.9829 66.4649 29.967C66.4819 29.9511 66.4988 29.9352 66.5161 29.9196C66.533 29.9043 66.5501 29.8893 66.5672 29.8742C66.5842 29.8591 66.6012 29.8441 66.6184 29.8293C66.6353 29.8147 66.6524 29.8003 66.6695 29.786C66.6864 29.7717 66.7035 29.7575 66.7206 29.7434C66.7376 29.7295 66.7547 29.7158 66.7718 29.7021C66.7888 29.6885 66.8058 29.6751 66.8229 29.6617C66.8398 29.6485 66.857 29.6354 66.8741 29.6224C66.8911 29.6095 66.9081 29.5967 66.9252 29.584L66.9763 29.5466C66.9933 29.5343 67.0103 29.5221 67.0275 29.51C67.0444 29.4981 67.0615 29.4863 67.0786 29.4745C67.0956 29.4628 67.1126 29.4512 67.1297 29.4397C67.1467 29.4284 67.1638 29.4172 67.1809 29.406C67.1979 29.3949 67.2149 29.3837 67.232 29.3727C67.249 29.3619 67.2661 29.3514 67.2832 29.3407C67.3002 29.3302 67.3171 29.3194 67.3343 29.3091C67.3512 29.2988 67.3684 29.2888 67.3854 29.2788C67.4025 29.2687 67.4194 29.2584 67.4366 29.2485C67.4535 29.2388 67.4707 29.2294 67.4877 29.2199C67.5048 29.2103 67.5217 29.2006 67.5389 29.1912C67.5558 29.1819 67.5729 29.173 67.59 29.1639C67.607 29.1549 67.624 29.1458 67.6411 29.1369C67.6581 29.1281 67.6752 29.1194 67.6923 29.1108L67.7434 29.0853C67.7604 29.077 67.7775 29.0686 67.7946 29.0604C67.8116 29.0523 67.8286 29.0444 67.8457 29.0365C67.8628 29.0285 67.8797 29.0204 67.8968 29.0126C67.9138 29.0049 67.9309 28.9977 67.948 28.9902C67.965 28.9827 67.982 28.9751 67.9991 28.9678C68.0161 28.9605 68.0332 28.9536 68.0503 28.9465L68.1014 28.9256L68.1525 28.9052L68.2037 28.8858C68.2207 28.8793 68.2376 28.8726 68.2548 28.8663C68.2717 28.8601 68.2889 28.8543 68.306 28.8483C68.323 28.8422 68.34 28.8361 68.3571 28.8302L68.4082 28.8131L68.4594 28.7964C68.4764 28.791 68.4934 28.7854 68.5105 28.7802C68.5274 28.7749 68.5446 28.7699 68.5616 28.7649C68.5787 28.7598 68.5957 28.7546 68.6128 28.7496C68.6298 28.7448 68.6468 28.7402 68.6639 28.7355L68.7151 28.7216C68.7321 28.7171 68.7491 28.7125 68.7662 28.7081C68.7832 28.7038 68.8003 28.6998 68.8173 28.6957C68.8343 28.6915 68.8514 28.6871 68.8685 28.6831C68.8855 28.6792 68.9026 28.6755 68.9196 28.6717L68.9708 28.6606C68.9878 28.6569 69.0048 28.6532 69.0219 28.6497C69.0389 28.6463 69.056 28.6432 69.073 28.6399C69.0901 28.6366 69.1071 28.6332 69.1242 28.6301C69.1412 28.627 69.1582 28.6242 69.1753 28.6213L69.2265 28.6128C69.2435 28.61 69.2605 28.6071 69.2776 28.6045C69.2946 28.6019 69.3117 28.5998 69.3287 28.5973C69.3457 28.5949 69.3628 28.5924 69.3799 28.5901L69.431 28.5837L69.4822 28.5779C69.4992 28.576 69.5162 28.5738 69.5333 28.572C69.5503 28.5703 69.5674 28.569 69.5844 28.5674L69.6356 28.5629C69.6526 28.5615 69.6696 28.5601 69.6867 28.5588C69.7037 28.5576 69.7208 28.5566 69.7379 28.5555C69.7549 28.5545 69.7719 28.5532 69.789 28.5523C69.806 28.5514 69.823 28.5507 69.8401 28.55L69.8913 28.548C69.9083 28.5474 69.9253 28.5465 69.9424 28.5461C69.9594 28.5457 69.9765 28.5457 69.9935 28.5455C70.0105 28.5452 70.0276 28.5449 70.0447 28.5448L70.0674 28.5445H70.0958H70.147H70.1981H70.2492H70.3004H70.3515H70.4027H70.4538H70.5049H70.5561H70.6072H70.6584H70.7095H70.7606H70.8118H70.8629H70.914H70.9652H71.0163H71.0675H71.1186H71.1697H71.2209H71.272H71.3232H71.3743H71.4254H71.4766H71.5277H71.5789H71.63H71.6811H71.7323H71.7834H71.8345H71.8857H71.9368H71.988H72.0391H72.0902H72.1414H72.1925H72.2437H72.2948H72.3459H72.3971H72.4482H72.4994H72.5505H72.6016H72.6528H72.7039H72.755H72.8062H72.8573H72.9085H72.9596H73.0107H73.0619H73.113H73.1642H73.2153H73.2664H73.3176H73.3687H73.4199H73.471H73.5221H73.5733H73.6244H73.6755H73.7267H73.7778H73.829H73.8801H73.9312H73.9824H74.0335H74.0847H74.1358H74.1869H74.2381H74.2892H74.3404H74.3915H74.4426H74.4938H74.5449H74.596H74.6472H74.6983H74.7495H74.8006H74.8517H74.9029H74.954H75.0052H75.0563H75.1074H75.1586H75.2097H75.2608H75.312H75.3631H75.4143H75.4654H75.5165H75.5677H75.6188H75.67H75.7211H75.7722H75.8234H75.8745H75.9256H75.9768H76.0279H76.0791H76.1302H76.1813H76.2325H76.2836H76.3348H76.3859H76.437H76.4882H76.5393H76.5905H76.6416H76.6927H76.7439H76.795H76.8461H76.8973H76.9484H76.9996H77.0507H77.1018H77.153H77.2041H77.2553H77.3064H77.3575H77.4087H77.4598H77.511H77.5621H77.6132H77.6644H77.7155H77.7666H77.8178H77.8612V55.1372C77.8612 55.3685 77.8464 55.5964 77.8178 55.8199C77.8041 55.9276 77.7867 56.0341 77.7666 56.1396C77.7514 56.2198 77.7344 56.2995 77.7155 56.3784C77.6996 56.4449 77.6827 56.5109 77.6644 56.5764C77.6483 56.6339 77.6312 56.691 77.6132 56.7476C77.597 56.7989 77.5799 56.8499 77.5621 56.9005C77.5457 56.9473 77.5287 56.9939 77.511 57.0402C77.4944 57.0833 77.4774 57.1262 77.4598 57.1689C77.4433 57.209 77.4262 57.2489 77.4087 57.2886C77.3921 57.3262 77.375 57.3635 77.3575 57.4007C77.3409 57.4361 77.3238 57.4713 77.3064 57.5064C77.2897 57.54 77.2727 57.5734 77.2553 57.6065C77.2385 57.6385 77.2215 57.6703 77.2041 57.7019C77.1873 57.7324 77.1704 57.7628 77.153 57.793C77.1362 57.8221 77.1192 57.851 77.1018 57.8798C77.0851 57.9076 77.068 57.9351 77.0507 57.9626C77.0339 57.9895 77.0168 58.0161 76.9996 58.0427C76.9827 58.0686 76.9658 58.0944 76.9484 58.12C76.9316 58.1448 76.9145 58.1694 76.8973 58.194C76.8805 58.2179 76.8634 58.2416 76.8461 58.2653C76.8292 58.2886 76.8123 58.3118 76.795 58.3348C76.7782 58.3572 76.7611 58.3795 76.7439 58.4017C76.727 58.4234 76.7099 58.4448 76.6927 58.4662C76.6758 58.4874 76.6589 58.5085 76.6416 58.5293C76.6248 58.5497 76.6076 58.5699 76.5905 58.59C76.5736 58.6098 76.5565 58.6295 76.5393 58.649C76.5223 58.6684 76.5054 58.6878 76.4882 58.7068C76.4714 58.7255 76.4542 58.7437 76.437 58.7622C76.4201 58.7804 76.4032 58.7987 76.3859 58.8167C76.369 58.8344 76.3519 58.8518 76.3348 58.8692C76.3178 58.8864 76.3008 58.9035 76.2836 58.9206C76.2667 58.9374 76.2497 58.9541 76.2325 58.9706C76.2156 58.9869 76.1985 59.003 76.1813 59.0191C76.1644 59.0351 76.1474 59.0511 76.1302 59.0668C76.1133 59.0822 76.0962 59.0974 76.0791 59.1126C76.062 59.1278 76.0452 59.1431 76.0279 59.1581C76.0111 59.1727 75.9938 59.187 75.9768 59.2014C75.9598 59.2158 75.9428 59.2304 75.9256 59.2446C75.9088 59.2586 75.8916 59.2722 75.8745 59.2859C75.8575 59.2996 75.8406 59.3134 75.8234 59.3269C75.8065 59.3402 75.7893 59.3531 75.7722 59.3662C75.7552 59.3792 75.7383 59.3923 75.7211 59.4051C75.7042 59.4178 75.687 59.4301 75.67 59.4425C75.6529 59.4549 75.636 59.4674 75.6188 59.4796C75.6019 59.4916 75.5848 59.5034 75.5677 59.5152C75.5506 59.527 75.5337 59.5389 75.5165 59.5506C75.4996 59.562 75.4825 59.5731 75.4654 59.5843C75.4484 59.5955 75.4315 59.607 75.4143 59.618C75.3974 59.6289 75.3802 59.6393 75.3631 59.65C75.3461 59.6607 75.3292 59.6715 75.312 59.682C75.295 59.6923 75.2779 59.7024 75.2608 59.7125C75.2438 59.7226 75.2269 59.7328 75.2097 59.7428C75.1927 59.7526 75.1757 59.7622 75.1586 59.7719C75.1416 59.7815 75.1246 59.7911 75.1074 59.8005C75.0905 59.8099 75.0734 59.8192 75.0563 59.8283L75.0052 59.8554C74.9881 59.8643 74.9711 59.8732 74.954 59.8819C74.937 59.8905 74.92 59.8989 74.9029 59.9074C74.8858 59.9158 74.8689 59.9245 74.8517 59.9327C74.8348 59.9409 74.8176 59.9487 74.8006 59.9567C74.7836 59.9647 74.7666 59.9728 74.7495 59.9806C74.7325 59.9884 74.7154 59.9958 74.6983 60.0033L74.6472 60.0258L74.596 60.0475C74.5791 60.0546 74.5619 60.0615 74.5449 60.0684C74.5279 60.0754 74.5109 60.0824 74.4938 60.0892C74.4768 60.0959 74.4597 60.1021 74.4426 60.1087C74.4256 60.1152 74.4086 60.1218 74.3915 60.1281C74.3745 60.1344 74.3574 60.1404 74.3404 60.1466L74.2892 60.1646L74.2381 60.1822C74.2211 60.1879 74.204 60.1933 74.1869 60.1988C74.1699 60.2043 74.1529 60.2101 74.1358 60.2154C74.1188 60.2208 74.1017 60.2257 74.0847 60.2308L74.0335 60.246L73.9824 60.2606C73.9654 60.2654 73.9483 60.2699 73.9312 60.2745C73.9142 60.2791 73.8972 60.2839 73.8801 60.2883C73.8631 60.2927 73.8459 60.2966 73.829 60.3008C73.8119 60.305 73.7949 60.3093 73.7778 60.3133L73.7267 60.3251L73.6755 60.3363C73.6585 60.34 73.6415 60.344 73.6244 60.3475C73.6074 60.351 73.5903 60.354 73.5733 60.3573C73.5562 60.3606 73.5392 60.364 73.5221 60.3671L73.471 60.3764C73.454 60.3793 73.4369 60.382 73.4199 60.3848C73.4028 60.3876 73.3858 60.3907 73.3687 60.3933C73.3517 60.396 73.3346 60.3982 73.3176 60.4006L73.2664 60.4078C73.2494 60.4101 73.2324 60.4125 73.2153 60.4146C73.1983 60.4167 73.1812 60.4185 73.1642 60.4205C73.1471 60.4224 73.1301 60.4246 73.113 60.4263C73.096 60.4281 73.0789 60.4297 73.0619 60.4313L73.0107 60.4358C72.9937 60.4373 72.9767 60.4391 72.9596 60.4403C72.9426 60.4416 72.9255 60.4425 72.9085 60.4436L72.8573 60.4468L72.8062 60.4495C72.7892 60.4503 72.7721 60.4509 72.755 60.4515C72.738 60.4521 72.721 60.4529 72.7039 60.4534C72.6869 60.4539 72.6698 60.4541 72.6528 60.4544L72.6016 60.4551C72.5858 60.4552 72.5701 60.4557 72.5542 60.4557H72.5505H72.4994H72.4482H72.3971H72.3459H72.2948H72.2437H72.1925H72.1414H72.0902H72.0391H71.988H71.9368H71.8857H71.8345H71.7834H71.7323H71.6811H71.63H71.5789H71.5277H71.4766H71.4254H71.3743H71.3232H71.272H71.2209H71.1697H71.1186H71.0675H71.0163H70.9652H70.914H70.8629H70.8118H70.7606H70.7095H70.6584H70.6072H70.5561H70.5049H70.4538H70.4027H70.3515H70.3004H70.2492H70.1981H70.147H70.0958H70.0447H69.9935H69.9424H69.8913H69.8401H69.789H69.7379H69.6867H69.6356H69.5844H69.5333H69.4822H69.431H69.3799H69.3287H69.2776H69.2265H69.1753H69.1242H69.073H69.0219H68.9708H68.9196H68.8685H68.8173H68.7662H68.7151H68.6639H68.6128H68.5616H68.5105H68.4594H68.4082H68.3571H68.306H68.2548H68.2037H68.1525H68.1014H68.0503H67.9991H67.948H67.8968H67.8457H67.7946H67.7434H67.6923H67.6411H67.59H67.5389H67.4877H67.4366H67.3854H67.3343H67.2832H67.232H67.1809H67.1297H67.0786H67.0275H66.9763H66.9252H66.8741H66.8229H66.7718H66.7206H66.6695H66.6184H66.5672H66.5161H66.4649H66.4138H66.3627H66.3115H66.2604H66.2092H66.1581H66.107H66.0558H66.0047H65.9535H65.9024H65.8513H65.8001H65.749H65.6978H65.6467H65.5956H65.5444H65.4933H65.4421H65.391H65.3399H65.2887H65.2376H65.1865H65.1353H65.0842H65.033H64.9819H64.9308H64.8796H64.7698V49.2471C64.7698 49.2471 64.8076 49.2576 64.8796 49.2758L64.9308 49.2886L64.9819 49.3011L65.033 49.3134L65.0842 49.3255L65.1353 49.3374L65.1865 49.3492L65.2376 49.3607L65.2887 49.3721L65.3399 49.3834L65.391 49.3945L65.4421 49.4054L65.4933 49.4162L65.5444 49.4269L65.5956 49.4374L65.6467 49.4478L65.6978 49.458L65.749 49.4681L65.8001 49.4781L65.8513 49.488L65.9024 49.4977L65.9535 49.5073L66.0047 49.5168L66.0558 49.5262L66.107 49.5354L66.1581 49.5445L66.2092 49.5535L66.2604 49.5624L66.3115 49.5711L66.3627 49.5798L66.4138 49.5883L66.4649 49.5967L66.5161 49.605L66.5672 49.6132L66.6184 49.6213L66.6695 49.6292L66.7206 49.6371L66.7718 49.6448L66.8229 49.6524L66.8741 49.6599L66.9252 49.6673L66.9763 49.6746L67.0275 49.6818L67.0786 49.6888L67.1297 49.6958L67.1809 49.7026L67.232 49.7093L67.2832 49.7159L67.3343 49.7224L67.3854 49.7288L67.4366 49.7351L67.4877 49.7413L67.5389 49.7473L67.59 49.7533L67.6411 49.7591L67.6923 49.7649L67.7434 49.7705L67.7946 49.776L67.8457 49.7814L67.8968 49.7866L67.948 49.7919L67.9991 49.7969L68.0503 49.8019L68.1014 49.8068L68.1525 49.8114L68.2037 49.8162L68.2548 49.8206L68.306 49.825L68.3571 49.8293L68.4082 49.8335L68.4594 49.8376L68.5105 49.8415L68.5616 49.8454L68.6128 49.8491L68.6639 49.8527L68.7151 49.8563L68.7662 49.8596L68.8173 49.8629L68.8685 49.8661L68.9196 49.8691L68.9708 49.8722L69.0219 49.8749L69.073 49.8776L69.1242 49.8803L69.1753 49.8827L69.2265 49.8851L69.2776 49.8873L69.3287 49.8895L69.3799 49.8916L69.431 49.8934L69.4822 49.8952L69.5333 49.8969L69.5844 49.8984L69.6356 49.8999L69.6867 49.9012L69.7379 49.9024L69.789 49.9036L69.8401 49.9044L69.8913 49.9053L69.9424 49.906L69.9935 49.9065L70.0447 49.9071L70.0958 49.9075L70.147 49.9076L70.1981 49.9078L70.2178 49.9079L70.2492 49.9077L70.3004 49.9073L70.3515 49.907L70.4027 49.9067L70.4538 49.9064L70.5049 49.9055L70.5561 49.9046L70.6072 49.9036L70.6584 49.9027L70.7095 49.9014L70.7606 49.8998L70.8118 49.8982L70.8629 49.8967L70.914 49.895L70.9652 49.8927L71.0163 49.8905L71.0675 49.8882L71.1186 49.8859L71.1697 49.883L71.2209 49.8801L71.272 49.8771L71.3232 49.8742L71.3743 49.8708L71.4254 49.8671L71.4766 49.8634L71.5277 49.8597L71.5789 49.8556L71.63 49.8512L71.6811 49.8468L71.7323 49.8423L71.7834 49.8375L71.8345 49.8322L71.8857 49.8271L71.9368 49.8218L71.988 49.8161L72.0391 49.8101L72.0902 49.8041L72.1414 49.7981L72.1925 49.7914L72.2437 49.7846L72.2948 49.7777L72.3459 49.7707C72.3632 49.7683 72.38 49.7655 72.3971 49.763L72.4482 49.7553L72.4994 49.7476L72.5505 49.7395C72.5677 49.7367 72.5845 49.7337 72.6016 49.7308L72.6528 49.7222C72.6697 49.7193 72.6871 49.7166 72.7039 49.7136C72.7211 49.7105 72.7379 49.7072 72.755 49.7041L72.8062 49.6945L72.8573 49.6849L72.9085 49.6749C72.9257 49.6715 72.9425 49.6678 72.9596 49.6644L73.0107 49.6538L73.0619 49.6431C73.0791 49.6394 73.0959 49.6354 73.113 49.6316L73.1642 49.62C73.1811 49.6161 73.1985 49.6124 73.2153 49.6084C73.2326 49.6044 73.2493 49.6001 73.2664 49.5959L73.3176 49.5833C73.3345 49.5791 73.3519 49.575 73.3687 49.5707C73.3859 49.5663 73.4028 49.5617 73.4199 49.5573L73.471 49.5436C73.488 49.539 73.5053 49.5345 73.5221 49.5298C73.5393 49.5251 73.5562 49.5202 73.5733 49.5153L73.6244 49.5005C73.6414 49.4955 73.6587 49.4906 73.6755 49.4856L73.7267 49.4699L73.7778 49.4538C73.7948 49.4484 73.8121 49.4432 73.829 49.4377L73.8801 49.4206L73.9312 49.4033C73.9482 49.3975 73.9656 49.3918 73.9824 49.3859C73.9996 49.3798 74.0164 49.3735 74.0335 49.3673L74.0847 49.3487C74.1017 49.3423 74.1189 49.3361 74.1358 49.3297C74.1531 49.3231 74.1699 49.3163 74.1869 49.3096C74.204 49.303 74.2212 49.2963 74.2381 49.2896L74.2892 49.2687L74.3404 49.2472C74.3573 49.24 74.3747 49.233 74.3915 49.2257C74.4088 49.2182 74.4255 49.2103 74.4426 49.2026L74.4938 49.1796L74.5449 49.1558C74.5621 49.1477 74.5791 49.1394 74.596 49.1311C74.6131 49.1229 74.6304 49.1147 74.6472 49.1063C74.6645 49.0976 74.6813 49.0887 74.6983 49.0799C74.7154 49.0712 74.7326 49.0625 74.7495 49.0536C74.7667 49.0445 74.7836 49.0352 74.8006 49.0259C74.8178 49.0166 74.8348 49.0072 74.8517 48.9978C74.8689 48.9882 74.886 48.9785 74.9029 48.9687C74.9201 48.9588 74.9371 48.9487 74.954 48.9386C74.9711 48.9285 74.9883 48.9183 75.0052 48.908C75.0224 48.8974 75.0393 48.8867 75.0563 48.876C75.0734 48.8652 75.0906 48.8544 75.1074 48.8435C75.1247 48.8323 75.1416 48.8207 75.1586 48.8093C75.1757 48.7978 75.1929 48.7864 75.2097 48.7747C75.2271 48.7627 75.2439 48.7505 75.2608 48.7384C75.278 48.7261 75.2952 48.7138 75.312 48.7014C75.3293 48.6886 75.3462 48.6756 75.3631 48.6626C75.3803 48.6495 75.3974 48.6363 75.4143 48.6229C75.4315 48.6093 75.4485 48.5955 75.4654 48.5816C75.4827 48.5674 75.4997 48.5531 75.5165 48.5387C75.5337 48.5241 75.5509 48.5095 75.5677 48.4947C75.5851 48.4794 75.6019 48.4638 75.6188 48.4482C75.636 48.4325 75.6532 48.4168 75.67 48.4008C75.6873 48.3843 75.7043 48.3676 75.7211 48.3508C75.7384 48.3336 75.7554 48.3163 75.7722 48.2989C75.7894 48.2811 75.8067 48.2633 75.8234 48.2453C75.8408 48.2265 75.8576 48.2074 75.8745 48.1883C75.8919 48.1687 75.9089 48.1489 75.9256 48.129C75.9429 48.1086 75.9601 48.0881 75.9768 48.0673C75.9941 48.0457 76.0113 48.0242 76.0279 48.0023C76.0454 47.9795 76.0623 47.9564 76.0791 47.9333C76.0965 47.9092 76.1135 47.885 76.1302 47.8605C76.1477 47.8351 76.1647 47.8094 76.1813 47.7836C76.1988 47.7566 76.2159 47.7293 76.2325 47.7018C76.25 47.6728 76.2671 47.6436 76.2836 47.6142C76.3012 47.583 76.3182 47.5516 76.3348 47.5199C76.3524 47.4861 76.3694 47.452 76.3859 47.4177C76.4037 47.3807 76.4207 47.3435 76.437 47.306C76.4548 47.2652 76.4719 47.2242 76.4882 47.1828C76.5061 47.1372 76.5232 47.0911 76.5393 47.0447C76.5576 46.992 76.5745 46.9388 76.5905 46.8851C76.6091 46.8224 76.6261 46.7591 76.6416 46.6951C76.6609 46.6158 76.678 46.5355 76.6927 46.4544C76.7147 46.3336 76.7315 46.2109 76.7439 46.0866C76.7611 45.9132 76.7694 45.7367 76.7694 45.5575V39.3866H76.7439H76.6927H76.6416H76.5905H76.5393H76.4882H76.437H76.3859H76.3348H76.2836H76.2325H76.1813H76.1302H76.0791H76.0279H75.9768H75.9256H75.8745H75.8234H75.7722H75.7211H75.67H75.6188H75.5677H75.5165H75.4654H75.4143H75.3631H75.312H75.2608H75.2097H75.1586H75.1074H75.0563H75.0052H74.954H74.9029H74.8517H74.8006H74.7495H74.6983H74.6472H74.596H74.5449H74.4938H74.4426H74.3915H74.3404H74.2892H74.2381H74.1869H74.1358H74.0847H74.0335H73.9824H73.9312H73.8801H73.829H73.7778H73.7267H73.6755H73.6244H73.5733H73.5221H73.471H73.4199H73.3687H73.3176H73.2664H73.2153H73.1642H73.113H73.0619H73.0107H72.9596H72.9085H72.8573H72.8062H72.755H72.7039H72.6528H72.6016H72.5505H72.4994H72.4482H72.3971H72.3459H72.2948H72.2437H72.2049V45.5575C72.2049 45.6541 72.2007 45.7491 72.1925 45.8423C72.182 45.9611 72.1649 46.0768 72.1414 46.1894C72.1268 46.2589 72.1097 46.3272 72.0902 46.3942C72.0747 46.4475 72.0577 46.5 72.0391 46.5516C72.0232 46.5956 72.0061 46.6388 71.988 46.6814C71.9718 46.7195 71.9548 46.7569 71.9368 46.7938C71.9204 46.8275 71.9035 46.8607 71.8857 46.8933C71.8693 46.9234 71.8521 46.9528 71.8345 46.982C71.818 47.0094 71.801 47.0365 71.7834 47.0632C71.7668 47.0882 71.7498 47.1129 71.7323 47.1372C71.7156 47.1604 71.6987 47.1834 71.6811 47.206C71.6645 47.2275 71.6474 47.2485 71.63 47.2693C71.6133 47.2893 71.5963 47.309 71.5789 47.3284C71.5621 47.3471 71.5451 47.3656 71.5277 47.3838C71.5109 47.4013 71.4939 47.4187 71.4766 47.4357C71.4598 47.4522 71.4428 47.4686 71.4254 47.4846C71.4087 47.5 71.3916 47.5152 71.3743 47.5303C71.3575 47.5449 71.3404 47.5593 71.3232 47.5735C71.3063 47.5873 71.2892 47.6008 71.272 47.6142C71.2552 47.6273 71.2381 47.6401 71.2209 47.6528C71.204 47.6651 71.187 47.6773 71.1697 47.6892C71.1529 47.7009 71.1359 47.7124 71.1186 47.7238C71.1017 47.7349 71.0847 47.7457 71.0675 47.7565C71.0506 47.7669 71.0335 47.7772 71.0163 47.7874C70.9994 47.7973 70.9824 47.807 70.9652 47.8166C70.9483 47.826 70.9312 47.8351 70.914 47.8442C70.8972 47.8532 70.8801 47.8619 70.8629 47.8705C70.846 47.8789 70.829 47.8872 70.8118 47.8954C70.7948 47.9034 70.7778 47.9113 70.7606 47.919C70.7437 47.9266 70.7267 47.9341 70.7095 47.9414C70.6926 47.9485 70.6755 47.9554 70.6584 47.9623C70.6415 47.969 70.6243 47.9756 70.6072 47.9821C70.5902 47.9885 70.5733 47.9947 70.5561 48.0009C70.5391 48.0069 70.5221 48.0129 70.5049 48.0186C70.488 48.0243 70.4709 48.0298 70.4538 48.0352C70.4369 48.0406 70.4198 48.0457 70.4027 48.0507C70.3857 48.0557 70.3686 48.0607 70.3515 48.0654C70.3345 48.0701 70.3175 48.0748 70.3004 48.0792C70.2834 48.0836 70.2664 48.0878 70.2492 48.0919C70.2323 48.096 70.2152 48.0999 70.1981 48.1038C70.1811 48.1076 70.1641 48.1113 70.147 48.1149C70.13 48.1184 70.113 48.1219 70.0958 48.1251C70.0789 48.1284 70.0618 48.1314 70.0447 48.1344C70.0277 48.1374 70.0107 48.1404 69.9935 48.1431L69.9424 48.151C69.9254 48.1534 69.9084 48.1557 69.8913 48.1579C69.8743 48.1602 69.8573 48.1624 69.8401 48.1644L69.789 48.1701C69.772 48.1719 69.755 48.1734 69.7379 48.175C69.7208 48.1765 69.7038 48.1781 69.6867 48.1794C69.6697 48.1807 69.6527 48.1819 69.6356 48.183C69.6186 48.1841 69.6015 48.185 69.5844 48.1859C69.5674 48.1868 69.5504 48.1877 69.5333 48.1884C69.5163 48.189 69.4992 48.1894 69.4822 48.1899L69.431 48.1911C69.4141 48.1914 69.397 48.1915 69.3799 48.1916L69.3606 48.1918L69.3287 48.1917L69.2776 48.1913L69.2265 48.1906L69.1753 48.1896L69.1242 48.1882L69.073 48.1865L69.0219 48.1844L68.9708 48.1821L68.9196 48.1795L68.8685 48.1764L68.8173 48.1731L68.7662 48.1695L68.7151 48.1655L68.6639 48.1612L68.6128 48.1566L68.5616 48.1517L68.5105 48.1464L68.4594 48.1409L68.4082 48.135L68.3571 48.1288L68.306 48.1223L68.2548 48.1156L68.2037 48.1085L68.1525 48.101L68.1014 48.0934L68.0503 48.0854L67.9991 48.077L67.948 48.0684L67.8968 48.0595L67.8457 48.0503L67.7946 48.0408L67.7434 48.031L67.6923 48.0209L67.6411 48.0105L67.59 47.9998L67.5389 47.9889L67.4877 47.9776L67.4366 47.966L67.3854 47.9542L67.3343 47.9421L67.2832 47.9297L67.232 47.917L67.1809 47.9041L67.1297 47.8907L67.0786 47.8772L67.0275 47.8635L66.9763 47.8494L66.9252 47.8351L66.8741 47.8204L66.8229 47.8056L66.7718 47.7903L66.7206 47.7749L66.6695 47.7592L66.6184 47.7432L66.5672 47.727L66.5161 47.7105L66.4649 47.6938L66.4138 47.6767L66.3627 47.6595L66.3115 47.6419L66.2604 47.6241L66.2092 47.606L66.1581 47.5877L66.107 47.5693L66.0558 47.5504L66.0047 47.5313L65.9535 47.512L65.9024 47.4925L65.8513 47.4726L65.8001 47.4526L65.749 47.4323L65.6978 47.4118L65.6467 47.391L65.5956 47.37L65.5444 47.3487L65.4933 47.3272L65.4421 47.3055L65.391 47.2835L65.3399 47.2613L65.2887 47.2388L65.2376 47.2162L65.1865 47.1934L65.1353 47.1703L65.0842 47.1469L65.033 47.1233L64.9819 47.0995L64.9308 47.0755L64.8796 47.0513V47.0513Z" fill="url(#paint1_linear_66_794)"/>
<path id="Vector_4" fill-rule="evenodd" clip-rule="evenodd" d="M79.5639 40.735C79.5266 40.7652 79.4899 40.7956 79.4541 40.8265V33.8635C79.4541 33.4932 79.492 33.1318 79.5639 32.7827C79.5794 32.7078 79.5965 32.6336 79.615 32.5598C79.6309 32.4966 79.6481 32.4338 79.6662 32.3715C79.6824 32.316 79.6994 32.2608 79.7174 32.2061C79.7337 32.156 79.7507 32.1062 79.7685 32.0569C79.785 32.0112 79.8019 31.9656 79.8196 31.9205C79.8362 31.8783 79.8532 31.8363 79.8708 31.7946C79.8874 31.7553 79.9044 31.7162 79.9219 31.6774C79.9385 31.6405 79.9556 31.6039 79.9731 31.5674C79.9897 31.5326 80.0068 31.4982 80.0242 31.4638C80.0409 31.4308 80.058 31.398 80.0753 31.3654C80.0921 31.3339 80.1091 31.3027 80.1265 31.2716C80.1432 31.2416 80.1603 31.2116 80.1776 31.1819C80.1944 31.1531 80.2114 31.1243 80.2287 31.0958C80.2455 31.0683 80.2626 31.041 80.2799 31.0138C80.2967 30.9873 80.3138 30.9611 80.331 30.935C80.3479 30.9094 80.3649 30.884 80.3822 30.8588C80.3991 30.834 80.416 30.8093 80.4333 30.7849C80.4501 30.7612 80.4673 30.7379 80.4844 30.7146C80.5013 30.6916 80.5184 30.6688 80.5356 30.6461C80.5526 30.6238 80.5695 30.6014 80.5867 30.5794C80.6035 30.558 80.6208 30.5369 80.6379 30.5157C80.6548 30.4948 80.6718 30.474 80.689 30.4534C80.706 30.4331 80.7229 30.4128 80.7402 30.3928C80.757 30.3732 80.7742 30.3539 80.7913 30.3346C80.8082 30.3154 80.8252 30.2962 80.8425 30.2773C80.8593 30.2588 80.8764 30.2405 80.8936 30.2222C80.9104 30.2042 80.9275 30.1863 80.9447 30.1684C80.9617 30.1509 80.9786 30.1333 80.9958 30.1159C81.0127 30.0989 81.0298 30.0821 81.047 30.0653C81.064 30.0486 81.0809 30.0317 81.0981 30.0152C81.115 29.9991 81.1322 29.9834 81.1492 29.9675C81.1662 29.9516 81.1832 29.9357 81.2004 29.9201C81.2173 29.9047 81.2345 29.8897 81.2515 29.8746C81.2685 29.8595 81.2855 29.8445 81.3027 29.8297C81.3196 29.8151 81.3367 29.8008 81.3538 29.7864C81.3708 29.7721 81.3878 29.7579 81.405 29.7438C81.4219 29.7299 81.439 29.7162 81.4561 29.7025C81.4731 29.6889 81.4901 29.6755 81.5073 29.6621C81.5242 29.6489 81.5413 29.6358 81.5584 29.6228C81.5754 29.6099 81.5924 29.5971 81.6095 29.5844C81.6265 29.5718 81.6436 29.5594 81.6607 29.547C81.6777 29.5348 81.6947 29.5225 81.7118 29.5104C81.7288 29.4985 81.7459 29.4867 81.763 29.4749C81.78 29.4632 81.797 29.4515 81.8141 29.44C81.831 29.4287 81.8481 29.4175 81.8653 29.4063C81.8822 29.3952 81.8992 29.384 81.9164 29.3731C81.9334 29.3623 81.9504 29.3517 81.9675 29.3411C81.9846 29.3305 82.0015 29.3198 82.0187 29.3094C82.0356 29.2991 82.0528 29.2891 82.0698 29.279C82.0869 29.269 82.1038 29.2587 82.121 29.2488C82.1379 29.239 82.1551 29.2297 82.1721 29.2201C82.1892 29.2105 82.2061 29.2009 82.2232 29.1915C82.2402 29.1822 82.2573 29.1733 82.2744 29.1642C82.2914 29.1551 82.3084 29.146 82.3255 29.1371L82.3767 29.1111L82.4278 29.0856C82.4448 29.0772 82.4618 29.0688 82.4789 29.0606C82.4959 29.0525 82.513 29.0447 82.5301 29.0367C82.5472 29.0288 82.5641 29.0206 82.5812 29.0129C82.5982 29.0052 82.6153 28.9979 82.6324 28.9904C82.6494 28.983 82.6664 28.9753 82.6835 28.968C82.7005 28.9608 82.7176 28.9538 82.7346 28.9467L82.7858 28.9258C82.8028 28.9189 82.8198 28.9121 82.8369 28.9054C82.8539 28.8988 82.871 28.8924 82.8881 28.8859C82.9052 28.8794 82.9221 28.8728 82.9392 28.8665C82.9562 28.8603 82.9733 28.8545 82.9904 28.8484C83.0074 28.8424 83.0244 28.8363 83.0415 28.8304C83.0585 28.8245 83.0756 28.8189 83.0927 28.8132L83.1438 28.7966C83.1608 28.7912 83.1778 28.7856 83.1949 28.7803C83.2119 28.775 83.229 28.7701 83.2461 28.765C83.2631 28.7599 83.2801 28.7547 83.2972 28.7498C83.3142 28.7449 83.3313 28.7403 83.3484 28.7356L83.3995 28.7217C83.4165 28.7172 83.4335 28.7126 83.4506 28.7082C83.4676 28.7039 83.4847 28.6999 83.5018 28.6957C83.5188 28.6916 83.5358 28.6872 83.5529 28.6832C83.5699 28.6793 83.587 28.6756 83.6041 28.6718L83.6552 28.6606C83.6723 28.657 83.6892 28.6533 83.7063 28.6498C83.7233 28.6464 83.7404 28.6433 83.7575 28.64C83.7745 28.6367 83.7915 28.6333 83.8086 28.6302L83.8598 28.6213L83.9109 28.6128C83.928 28.6101 83.945 28.6071 83.9621 28.6045C83.9791 28.602 83.9962 28.5998 84.0132 28.5974C84.0302 28.595 84.0473 28.5925 84.0643 28.5902L84.1155 28.5838L84.1666 28.5779C84.1837 28.576 84.2007 28.5738 84.2178 28.572C84.2348 28.5703 84.2519 28.569 84.2689 28.5674L84.3201 28.5629C84.3371 28.5615 84.3541 28.5601 84.3712 28.5589C84.3882 28.5576 84.4053 28.5566 84.4223 28.5556C84.4394 28.5545 84.4564 28.5533 84.4735 28.5523C84.4905 28.5514 84.5076 28.5508 84.5246 28.55L84.5758 28.548C84.5928 28.5474 84.6098 28.5466 84.6269 28.5461C84.6439 28.5457 84.661 28.5457 84.678 28.5455C84.6951 28.5452 84.7121 28.5449 84.7292 28.5449L84.7518 28.5446H84.7803H84.8315H84.8826H84.9337H84.9849H85.036H85.0872H85.1383H85.1895H85.2406H85.2918H85.3429H85.394H85.4452H85.4963H85.5475H85.5986H85.6498H85.7009H85.752H85.8032H85.8543H85.9054H85.9566H86.0077H86.0589H86.11H86.1612H86.2123H86.2634H86.3146H86.3657H86.4169H86.468H86.5192H86.5703H86.6214H86.6726H86.7237H86.7749H86.826H86.8772H86.9283H86.9794H87.0306H87.0817H87.1329H87.184H87.2351H87.2863H87.3374H87.3885H87.4397H87.4908H87.542H87.5931H87.6443H87.6954H87.7466H87.7977H87.8489H87.9H87.9511H88.0023H88.0534H88.1046H88.1557H88.2068H88.258H88.3091H88.3603H88.4114H88.4625H88.5137H88.5648H88.616H88.6671H88.7182H88.7694H88.8205H88.8716H88.9228H88.9739H89.0251H89.0762H89.1274H89.1785H89.2297H89.2808H89.332H89.3831H89.4342H89.4854H89.5365H89.5877H89.6388H89.6899H89.7411H89.7922H89.8434H89.8945H89.9456H89.9968H90.0479H90.0991H90.1502H90.2013H90.2525H90.3036H90.3548H90.4059H90.4571H90.5082H90.5594H90.6105H90.6616H90.7128H90.7639H90.8151H90.8662H90.9173H90.9685H91.0196H91.0708H91.1219H91.173H91.2242H91.2753H91.3265H91.3776H91.4288H91.4799H91.531H91.5822H91.6333H91.6845H91.7356H91.7868H91.8379H91.889H91.9402H91.9913H92.0425H92.0936H92.1448H92.1959H92.247H92.2982H92.3493H92.4004H92.4516H92.5027H92.5461V55.1372C92.5461 55.3684 92.5313 55.5961 92.5027 55.8196C92.489 55.9272 92.4717 56.0337 92.4516 56.1391C92.4363 56.2194 92.4193 56.2991 92.4004 56.3781C92.3846 56.4446 92.3676 56.5107 92.3493 56.5762C92.3332 56.6337 92.3161 56.6907 92.2982 56.7474C92.2819 56.7987 92.2648 56.8496 92.247 56.9002C92.2306 56.9471 92.2135 56.9936 92.1959 57.0399C92.1794 57.083 92.1624 57.1259 92.1448 57.1685C92.1281 57.2087 92.1111 57.2486 92.0936 57.2883C92.077 57.3259 92.0599 57.3632 92.0425 57.4004C92.0258 57.4358 92.0087 57.4711 91.9913 57.5061C91.9746 57.5397 91.9575 57.5731 91.9402 57.6063C91.9234 57.6383 91.9064 57.6701 91.889 57.7017C91.8722 57.7322 91.8553 57.7626 91.8379 57.7928C91.8212 57.8219 91.804 57.8508 91.7868 57.8795C91.77 57.9073 91.7529 57.9349 91.7356 57.9624C91.7188 57.9892 91.7018 58.0159 91.6845 58.0423C91.6676 58.0683 91.6507 58.0942 91.6333 58.1198C91.6165 58.1446 91.5994 58.1692 91.5822 58.1937C91.5654 58.2176 91.5483 58.2414 91.531 58.2651C91.5141 58.2883 91.4971 58.3116 91.4799 58.3346C91.463 58.357 91.446 58.3792 91.4288 58.4014C91.4119 58.4231 91.3948 58.4445 91.3776 58.4659C91.3607 58.4871 91.3438 58.5082 91.3265 58.5291C91.3096 58.5495 91.2925 58.5696 91.2753 58.5898C91.2584 58.6096 91.2414 58.6292 91.2242 58.6488C91.2072 58.6681 91.1903 58.6874 91.173 58.7065C91.1562 58.7252 91.139 58.7435 91.1219 58.7619C91.1049 58.7801 91.088 58.7985 91.0708 58.8165C91.0539 58.8342 91.0367 58.8515 91.0196 58.8689C91.0027 58.8862 90.9857 58.9033 90.9685 58.9203C90.9516 58.9371 90.9345 58.9538 90.9173 58.9704C90.9004 58.9867 90.8833 59.0028 90.8662 59.0188C90.8492 59.0348 90.8323 59.0509 90.8151 59.0666C90.7982 59.0821 90.781 59.0972 90.7639 59.1124C90.7469 59.1276 90.73 59.1429 90.7128 59.1579C90.6959 59.1726 90.6787 59.1869 90.6616 59.2013C90.6446 59.2157 90.6277 59.2303 90.6105 59.2444C90.5936 59.2584 90.5764 59.2719 90.5594 59.2857C90.5423 59.2994 90.5254 59.3132 90.5082 59.3267C90.4913 59.34 90.4741 59.3529 90.4571 59.366C90.4401 59.379 90.4231 59.3921 90.4059 59.405C90.389 59.4176 90.3719 59.4299 90.3548 59.4423C90.3378 59.4547 90.3208 59.4673 90.3036 59.4794C90.2867 59.4914 90.2696 59.5031 90.2525 59.515C90.2355 59.5268 90.2185 59.5388 90.2013 59.5504C90.1844 59.5618 90.1673 59.5729 90.1502 59.5841C90.1332 59.5953 90.1163 59.6068 90.0991 59.6178C90.0822 59.6287 90.065 59.6392 90.0479 59.6499C90.0309 59.6605 90.014 59.6713 89.9968 59.6818C89.9799 59.6921 89.9627 59.7021 89.9456 59.7123C89.9286 59.7224 89.9116 59.7326 89.8945 59.7426C89.8775 59.7524 89.8605 59.7621 89.8434 59.7717L89.7922 59.8004L89.7411 59.8282L89.6899 59.8552C89.6729 59.8641 89.6559 59.873 89.6388 59.8817C89.6218 59.8904 89.6048 59.8987 89.5877 59.9072C89.5706 59.9157 89.5537 59.9243 89.5365 59.9326C89.5196 59.9407 89.5024 59.9485 89.4854 59.9565C89.4683 59.9645 89.4514 59.9727 89.4342 59.9805C89.4173 59.9882 89.4001 59.9957 89.3831 60.0032L89.332 60.0256L89.2808 60.0474L89.2297 60.0683C89.2126 60.0753 89.1956 60.0823 89.1785 60.0891C89.1616 60.0958 89.1444 60.102 89.1274 60.1085C89.1103 60.1151 89.0934 60.1217 89.0762 60.128C89.0592 60.1343 89.0422 60.1403 89.0251 60.1465L88.9739 60.1645L88.9228 60.1821C88.9058 60.1878 88.8887 60.1932 88.8716 60.1987C88.8546 60.2042 88.8376 60.21 88.8205 60.2153C88.8036 60.2207 88.7864 60.2256 88.7694 60.2307L88.7182 60.2459L88.6671 60.2605C88.6501 60.2653 88.633 60.2698 88.616 60.2744C88.5989 60.279 88.582 60.2838 88.5648 60.2883C88.5478 60.2926 88.5307 60.2966 88.5137 60.3008C88.4966 60.305 88.4796 60.3092 88.4625 60.3133L88.4114 60.3251L88.3603 60.3363C88.3432 60.3399 88.3262 60.3439 88.3091 60.3474C88.2921 60.3509 88.275 60.354 88.258 60.3573L88.2068 60.3671L88.1557 60.3763C88.1387 60.3793 88.1216 60.382 88.1046 60.3848C88.0875 60.3876 88.0705 60.3906 88.0534 60.3933C88.0364 60.3959 88.0193 60.3982 88.0023 60.4006L87.9511 60.4078C87.9341 60.4101 87.9171 60.4125 87.9 60.4146C87.883 60.4167 87.8659 60.4185 87.8489 60.4205C87.8318 60.4224 87.8148 60.4245 87.7977 60.4263C87.7807 60.4281 87.7636 60.4297 87.7466 60.4313L87.6954 60.4359C87.6783 60.4373 87.6614 60.4391 87.6443 60.4403C87.6273 60.4416 87.6102 60.4425 87.5931 60.4436L87.542 60.4468L87.4908 60.4496C87.4739 60.4504 87.4567 60.4508 87.4397 60.4515C87.4226 60.4521 87.4056 60.4529 87.3885 60.4534C87.3716 60.4539 87.3545 60.4541 87.3374 60.4544L87.2863 60.4551C87.2703 60.4552 87.2545 60.4557 87.2385 60.4557H87.2351H87.184H87.1329H87.0817H87.0306H86.9794H86.9283H86.8772H86.826H86.7749H86.7237H86.6726H86.6214H86.5703H86.5192H86.468H86.4169H86.3657H86.3146H86.2634H86.2123H86.1612H86.11H86.0589H86.0077H85.9566H85.9054H85.8543H85.8032H85.752H85.7009H85.6498H85.5986H85.5475H85.4963H85.4452H85.394H85.3429H85.2918H85.2406H85.1895H85.1383H85.0872H85.036H84.9849H84.9337H84.8826H84.8315H84.7803H84.7292H84.678H84.6269H84.5758H84.5246H84.4735H84.4223H84.3712H84.3201H84.2689H84.2178H84.1666H84.1155H84.0643H84.0132H83.9621H83.9109H83.8598H83.8086H83.7575H83.7063H83.6552H83.6041H83.5529H83.5018H83.4506H83.3995H83.3484H83.2972H83.2461H83.1949H83.1438H83.0927H83.0415H82.9904H82.9392H82.8881H82.8369H82.7858H82.7346H82.6835H82.6324H82.5812H82.5301H82.4789H82.4278H82.3767H82.3255H82.2744H82.2232H82.1721H82.121H82.0698H82.0187H81.9675H81.9164H81.8653H81.8141H81.763H81.7118H81.6607H81.6095H81.5584H81.5073H81.4561H81.405H81.3538H81.3027H81.2515H81.2004H81.1492H81.0981H81.047H80.9958H80.9447H80.8936H80.8425H80.7913H80.7402H80.689H80.6379H80.5867H80.5356H80.4844H80.4333H80.3822H80.331H80.2799H80.2287H80.1776H80.1265H80.0753H80.0242H79.9731H79.9219H79.8708H79.8196H79.7685H79.7174H79.6662H79.615H79.5639H79.4541V48.1759C79.4899 48.2067 79.5266 48.2371 79.5639 48.2673C79.5808 48.281 79.5979 48.2946 79.615 48.3082C79.632 48.3215 79.649 48.3348 79.6662 48.3481C79.6832 48.3611 79.7001 48.3741 79.7174 48.387C79.7342 48.3997 79.7514 48.4121 79.7685 48.4247C79.7854 48.437 79.8025 48.4493 79.8196 48.4615C79.8366 48.4735 79.8536 48.4856 79.8708 48.4975L79.9219 48.5326C79.9388 48.5441 79.9559 48.5554 79.9731 48.5668L80.0242 48.6002C80.0411 48.6112 80.0581 48.6221 80.0753 48.633C80.0922 48.6436 80.1094 48.6542 80.1265 48.6647L80.1776 48.6959C80.1946 48.7061 80.2116 48.7163 80.2287 48.7264C80.2456 48.7364 80.2628 48.7461 80.2799 48.756L80.331 48.7851L80.3822 48.8135L80.4333 48.8412C80.4503 48.8503 80.4672 48.8595 80.4844 48.8685C80.5013 48.8774 80.5185 48.8862 80.5356 48.8949L80.5867 48.921L80.6379 48.9464L80.689 48.9712C80.706 48.9794 80.723 48.9876 80.7402 48.9957L80.7913 49.0194L80.8425 49.0428L80.8936 49.0655L80.9447 49.0879L80.9958 49.1097L81.047 49.1311L81.0981 49.1521L81.1492 49.1725L81.2004 49.1928L81.2515 49.2123C81.2686 49.2187 81.2855 49.2253 81.3027 49.2317L81.3538 49.2504C81.3708 49.2566 81.3878 49.2629 81.405 49.269C81.4219 49.2751 81.4391 49.2809 81.4561 49.2869L81.5073 49.3047L81.5584 49.3219C81.5754 49.3276 81.5923 49.3334 81.6095 49.339C81.6264 49.3446 81.6436 49.35 81.6607 49.3554L81.7118 49.3719L81.763 49.3876L81.8141 49.4033L81.8653 49.4184L81.9164 49.4334L81.9675 49.4479L82.0187 49.4623L82.0698 49.4762L82.121 49.4899L82.1721 49.5033L82.2232 49.5164L82.2744 49.5293L82.3255 49.5417L82.3767 49.5541L82.4278 49.5659L82.4789 49.5777L82.5301 49.5891L82.5812 49.6003L82.6324 49.6113L82.6835 49.6218L82.7346 49.6324L82.7858 49.6425L82.8369 49.6525L82.8881 49.6622L82.9392 49.6716L82.9904 49.681L83.0415 49.6899L83.0927 49.6987L83.1438 49.7073L83.1949 49.7156L83.2461 49.7239L83.2972 49.7316L83.3484 49.7395L83.3995 49.747L83.4506 49.7542L83.5018 49.7615L83.5529 49.7682L83.6041 49.775L83.6552 49.7816L83.7063 49.7878L83.7575 49.7941L83.8086 49.8L83.8598 49.8057L83.9109 49.8115L83.9621 49.8167L84.0132 49.822L84.0643 49.8271L84.1155 49.8319L84.1666 49.8367L84.2178 49.8413L84.2689 49.8456L84.3201 49.8499L84.3712 49.8539L84.4223 49.8578L84.4735 49.8617L84.5246 49.8651L84.5758 49.8686L84.6269 49.872L84.678 49.8749L84.7292 49.8779L84.7803 49.8809L84.8315 49.8834L84.8826 49.8859L84.9337 49.8884L84.9849 49.8905L85.036 49.8926L85.0872 49.8947L85.1383 49.8964L85.1895 49.8981L85.2406 49.8998L85.2918 49.901L85.3429 49.9023L85.394 49.9036L85.4452 49.9045L85.4963 49.9053L85.5475 49.9062L85.5986 49.9067L85.6498 49.9072L85.7009 49.9077L85.752 49.9079L85.8032 49.908L85.8543 49.9081L85.9054 49.9079L85.9566 49.9076L86.0077 49.9073L86.0589 49.9069L86.11 49.9062L86.1612 49.9055L86.2123 49.9049L86.2634 49.9038L86.3146 49.9028L86.3657 49.9017L86.4169 49.9004L86.468 49.899L86.5192 49.8975L86.5703 49.896L86.6214 49.8942L86.6726 49.8925L86.7237 49.8907L86.7749 49.8886L86.826 49.8864L86.8772 49.8843L86.9021 49.8832L86.9283 49.882L86.9794 49.8795L87.0306 49.8768L87.0817 49.874L87.1329 49.8709L87.184 49.8677L87.2351 49.8643L87.2863 49.8608L87.3374 49.857L87.3885 49.8532L87.4397 49.8491L87.4908 49.8449L87.542 49.8405L87.5931 49.836L87.6443 49.8314L87.6954 49.8265L87.7466 49.8216L87.7977 49.8165L87.8489 49.8113L87.9 49.8059L87.9511 49.8004L88.0023 49.7947L88.0534 49.789L88.1046 49.783L88.1557 49.777L88.2068 49.7708L88.258 49.7645L88.3091 49.7581L88.3603 49.7516L88.4114 49.745L88.4625 49.7381L88.5137 49.7312L88.5648 49.7242L88.616 49.7171L88.6671 49.7098L88.7182 49.7024L88.7694 49.695L88.8205 49.6873L88.8716 49.6796L88.9228 49.6718L88.9739 49.6639L89.0251 49.6558L89.0762 49.6477L89.1274 49.6395L89.1785 49.6311L89.2297 49.6226L89.2808 49.614L89.332 49.6054L89.3831 49.5966L89.4342 49.5877L89.4854 49.5787L89.5365 49.5696L89.5877 49.5604L89.6388 49.5512L89.6899 49.5418L89.7411 49.5323L89.7922 49.5227L89.8434 49.513L89.8945 49.5032L89.9456 49.4933L89.9968 49.4833L90.0479 49.4733L90.0991 49.4631L90.1502 49.4528L90.2013 49.4424L90.2525 49.4319L90.3036 49.4213L90.3548 49.4106L90.4059 49.3998L90.4571 49.3889L90.5082 49.3779L90.5594 49.3667L90.6105 49.3555L90.6616 49.3441L90.7128 49.3327L90.7639 49.3211L90.8151 49.3093L90.8662 49.2975L90.9173 49.2854L90.9685 49.2732L91.0196 49.2609L91.0705 49.2483V46.9985L91.0196 47.0239L90.9685 47.0492L90.9173 47.0743L90.8662 47.0991L90.8151 47.1238L90.7639 47.1482L90.7128 47.1722L90.6616 47.1962L90.6105 47.2198L90.5594 47.2432L90.5082 47.2663L90.4571 47.2892L90.4059 47.3117L90.3548 47.334L90.3036 47.3561L90.2525 47.3779L90.2013 47.3994L90.1502 47.4207L90.0991 47.4416L90.0479 47.4623L89.9968 47.4827L89.9456 47.5029L89.8945 47.5227L89.8434 47.5422L89.7922 47.5615L89.7411 47.5804L89.6899 47.5991L89.6388 47.6175L89.5877 47.6357L89.5365 47.6535L89.4854 47.671L89.4342 47.6882L89.3831 47.7052L89.332 47.7218L89.2808 47.7382L89.2297 47.7543L89.1785 47.77L89.1274 47.7855L89.0762 47.8007L89.0251 47.8156L88.9739 47.8303L88.9228 47.8445L88.8716 47.8586L88.8205 47.8723L88.7694 47.8857L88.7182 47.8989L88.6671 47.9117L88.616 47.9243L88.5648 47.9366L88.5137 47.9486L88.4625 47.9603L88.4114 47.9717L88.3603 47.9829L88.3091 47.9937L88.258 48.0042L88.2068 48.0145L88.1557 48.0246L88.1046 48.0342L88.0534 48.0436L88.0023 48.0528L87.9511 48.0617L87.9 48.0702L87.8489 48.0785L87.7977 48.0866L87.7466 48.0943L87.6954 48.1017L87.6443 48.109L87.5931 48.1158L87.542 48.1224L87.4908 48.1288L87.4397 48.1349L87.3885 48.1407L87.3374 48.1463L87.2863 48.1516L87.2351 48.1565L87.184 48.1613L87.1329 48.1658L87.0817 48.17L87.0507 48.1724L87.0306 48.1738L86.9794 48.1772L86.9283 48.1806L86.8772 48.1834L86.826 48.186L86.7749 48.1884L86.7237 48.19L86.6726 48.1917L86.6214 48.1928L86.5703 48.1936L86.5192 48.1942C86.502 48.1943 86.4851 48.1941 86.468 48.194L86.4169 48.1939L86.3657 48.1931L86.3146 48.192L86.2634 48.1907C86.2463 48.1901 86.2293 48.1893 86.2123 48.1886C86.1953 48.1879 86.1781 48.1874 86.1612 48.1865L86.11 48.1837L86.0589 48.1806L86.0077 48.1771L85.9566 48.173C85.9395 48.1716 85.9224 48.1704 85.9054 48.1688C85.8883 48.1672 85.8714 48.1654 85.8543 48.1637L85.8032 48.1585L85.752 48.1526L85.7009 48.1464L85.6498 48.1396L85.5986 48.1323C85.5815 48.1298 85.5644 48.1274 85.5475 48.1247C85.5303 48.122 85.5133 48.1191 85.4963 48.1162C85.4793 48.1134 85.4621 48.1107 85.4452 48.1077C85.428 48.1047 85.4111 48.1013 85.394 48.0981C85.377 48.0949 85.3598 48.0919 85.3429 48.0885C85.3257 48.0851 85.3088 48.0814 85.2918 48.0778C85.2747 48.0742 85.2575 48.0708 85.2406 48.067C85.2235 48.0633 85.2065 48.0592 85.1895 48.0553L85.1383 48.0432C85.1212 48.039 85.1042 48.0346 85.0872 48.0303C85.0701 48.0259 85.053 48.0216 85.036 48.017C85.0189 48.0124 85.0019 48.0076 84.9849 48.0028C84.9678 47.998 84.9507 47.9932 84.9337 47.9882C84.9166 47.9831 84.8996 47.9779 84.8826 47.9727C84.8655 47.9674 84.8484 47.9621 84.8315 47.9567C84.8143 47.9511 84.7973 47.9454 84.7803 47.9397C84.7633 47.934 84.7461 47.9283 84.7292 47.9223C84.712 47.9163 84.6951 47.9101 84.678 47.9039C84.661 47.8976 84.6438 47.8915 84.6269 47.885C84.6097 47.8785 84.5928 47.8717 84.5758 47.8649C84.5587 47.8581 84.5415 47.8515 84.5246 47.8445C84.5074 47.8374 84.4905 47.83 84.4735 47.8227C84.4564 47.8153 84.4392 47.808 84.4223 47.8004C84.4051 47.7927 84.3882 47.7847 84.3712 47.7768C84.3541 47.7688 84.337 47.7608 84.3201 47.7527C84.3029 47.7443 84.2858 47.7359 84.2689 47.7273C84.2517 47.7186 84.2347 47.7098 84.2178 47.7009C84.2007 47.692 84.1835 47.6831 84.1666 47.6738C84.1494 47.6644 84.1325 47.6547 84.1155 47.6451C84.0984 47.6353 84.0812 47.6256 84.0643 47.6156C84.0471 47.6055 84.0301 47.5951 84.0132 47.5847C83.996 47.5741 83.979 47.5633 83.9621 47.5525C83.945 47.5416 83.9277 47.5307 83.9109 47.5195C83.8936 47.508 83.8768 47.4961 83.8598 47.4844C83.8426 47.4725 83.8255 47.4604 83.8086 47.4482C83.7915 47.4358 83.7743 47.4234 83.7575 47.4107C83.7402 47.3977 83.7233 47.3844 83.7063 47.3711C83.6891 47.3575 83.6721 47.3439 83.6552 47.3301C83.6381 47.316 83.6209 47.302 83.6041 47.2876C83.5868 47.2728 83.5698 47.2577 83.5529 47.2425C83.5356 47.2271 83.5187 47.2114 83.5018 47.1956C83.4846 47.1795 83.4675 47.1632 83.4506 47.1468C83.4334 47.1299 83.4163 47.1131 83.3995 47.0958C83.3822 47.078 83.3652 47.0599 83.3484 47.0417C83.331 47.023 83.314 47.0041 83.2972 46.9849C83.2799 46.9653 83.2628 46.9454 83.2461 46.9253C83.2288 46.9047 83.2117 46.8838 83.1949 46.8626C83.1776 46.8408 83.1605 46.8186 83.1438 46.7963C83.1265 46.7731 83.1093 46.7498 83.0927 46.7261C83.0753 46.7014 83.0582 46.6765 83.0415 46.6513C83.0241 46.625 83.0071 46.5983 82.9904 46.5714C82.9729 46.5431 82.9559 46.5145 82.9392 46.4856C82.9217 46.4552 82.9047 46.4243 82.8881 46.3931C82.8705 46.3601 82.8535 46.3265 82.8369 46.2927C82.8193 46.2566 82.8022 46.22 82.7858 46.183C82.7681 46.1432 82.7509 46.1031 82.7346 46.0622C82.7166 46.0171 82.6998 45.9711 82.6835 45.9246C82.6655 45.8731 82.6484 45.8209 82.6324 45.7678C82.6139 45.7062 82.5968 45.6437 82.5812 45.58C82.5619 45.5008 82.545 45.4199 82.5301 45.3376C82.5081 45.2155 82.4909 45.0899 82.4789 44.961C82.4652 44.8122 82.4581 44.6588 82.4581 44.501C82.4581 44.3431 82.4652 44.1896 82.4789 44.0406C82.4909 43.9117 82.5081 43.7861 82.5301 43.6639C82.545 43.5815 82.5619 43.5005 82.5812 43.4213C82.5968 43.3577 82.6139 43.2951 82.6324 43.2335C82.6484 43.1804 82.6655 43.1281 82.6835 43.0765C82.6998 43.0301 82.7166 42.984 82.7346 42.9389C82.7509 42.898 82.7681 42.8578 82.7858 42.818C82.8022 42.781 82.8193 42.7444 82.8369 42.7083C82.8535 42.6744 82.8705 42.6409 82.8881 42.6078C82.9047 42.5766 82.9217 42.5457 82.9392 42.5153C82.9559 42.4863 82.9729 42.4577 82.9904 42.4294C83.0071 42.4025 83.0241 42.3758 83.0415 42.3495C83.0582 42.3243 83.0753 42.2994 83.0927 42.2747C83.1093 42.251 83.1265 42.2276 83.1438 42.2045C83.1605 42.1821 83.1776 42.16 83.1949 42.1381C83.2117 42.1169 83.2288 42.0961 83.2461 42.0754C83.2628 42.0552 83.2799 42.0354 83.2972 42.0157C83.314 41.9966 83.331 41.9776 83.3484 41.9589C83.3652 41.9408 83.3822 41.9225 83.3995 41.9048C83.4163 41.8875 83.4334 41.8706 83.4506 41.8538C83.4675 41.8373 83.4846 41.8211 83.5018 41.8049C83.5187 41.7892 83.5356 41.7734 83.5529 41.758C83.5698 41.7429 83.5868 41.7277 83.6041 41.7129C83.6209 41.6985 83.6381 41.6845 83.6552 41.6704C83.6721 41.6566 83.6891 41.6429 83.7063 41.6294C83.7233 41.616 83.7402 41.6027 83.7575 41.5897C83.7743 41.577 83.7915 41.5646 83.8086 41.5523C83.8255 41.54 83.8426 41.528 83.8598 41.5161C83.8768 41.5043 83.8936 41.4924 83.9109 41.4809C83.9277 41.4697 83.945 41.4588 83.9621 41.4478C83.979 41.437 83.996 41.4262 84.0132 41.4157C84.0301 41.4053 84.0471 41.3949 84.0643 41.3848C84.0812 41.3748 84.0984 41.3651 84.1155 41.3553C84.1325 41.3457 84.1494 41.336 84.1666 41.3265C84.1835 41.3173 84.2007 41.3084 84.2178 41.2994C84.2347 41.2905 84.2517 41.2817 84.2689 41.273C84.2858 41.2645 84.3029 41.256 84.3201 41.2477C84.337 41.2395 84.3541 41.2315 84.3712 41.2235C84.3882 41.2155 84.4051 41.2075 84.4223 41.1998C84.4392 41.1923 84.4564 41.185 84.4735 41.1776C84.4905 41.1703 84.5074 41.1629 84.5246 41.1558C84.5415 41.1488 84.5587 41.1421 84.5758 41.1353C84.5928 41.1286 84.6097 41.1218 84.6269 41.1152C84.6438 41.1088 84.661 41.1026 84.678 41.0964C84.6951 41.0902 84.712 41.0839 84.7292 41.0779C84.7461 41.0719 84.7633 41.0662 84.7803 41.0605C84.7973 41.0548 84.8143 41.0491 84.8315 41.0435C84.8484 41.0381 84.8655 41.0328 84.8826 41.0275C84.8996 41.0223 84.9166 41.0171 84.9337 41.012L84.9849 40.9974C85.0019 40.9926 85.0189 40.9878 85.036 40.9832C85.053 40.9786 85.0701 40.9743 85.0872 40.9699C85.1042 40.9656 85.1212 40.9612 85.1383 40.957L85.1895 40.9449C85.2065 40.941 85.2235 40.9369 85.2406 40.9332C85.2575 40.9294 85.2747 40.9259 85.2918 40.9224C85.3088 40.9188 85.3257 40.915 85.3429 40.9116C85.3598 40.9083 85.377 40.9052 85.394 40.9021C85.4111 40.8989 85.428 40.8955 85.4452 40.8924C85.4621 40.8894 85.4793 40.8868 85.4963 40.8839C85.5133 40.8811 85.5303 40.8781 85.5475 40.8755L85.5986 40.8678L85.6498 40.8605L85.7009 40.8538L85.752 40.8476L85.8032 40.8416L85.8543 40.8364C85.8714 40.8347 85.8883 40.8329 85.9054 40.8313C85.9224 40.8297 85.9395 40.8285 85.9566 40.8271L86.0077 40.823L86.0589 40.8195L86.11 40.8165L86.1612 40.8136C86.1781 40.8128 86.1953 40.8122 86.2123 40.8115C86.2293 40.8108 86.2463 40.81 86.2634 40.8094L86.3146 40.8081L86.3657 40.807L86.4169 40.8062L86.468 40.8061C86.4851 40.806 86.502 40.8058 86.5192 40.8059L86.5703 40.8065L86.6214 40.8073L86.6726 40.8084L86.7237 40.8101L86.7749 40.8117L86.826 40.8141L86.8772 40.8167L86.9283 40.8195L86.9794 40.8229L87.0306 40.8263L87.0507 40.8277L87.0817 40.8302L87.1329 40.8342L87.184 40.8387L87.2351 40.8433L87.2863 40.8482L87.3374 40.8535L87.3885 40.859L87.4397 40.8647L87.4908 40.8707L87.542 40.877L87.5931 40.8835L87.6443 40.8903L87.6954 40.8974L87.7466 40.9047L87.7977 40.9124L87.8489 40.9203L87.9 40.9285L87.9511 40.9369L88.0023 40.9458L88.0534 40.9548L88.1046 40.9641L88.1557 40.9737L88.2068 40.9836L88.258 40.9938L88.3091 41.0043L88.3603 41.015L88.4114 41.0261L88.4625 41.0374L88.5137 41.049L88.5648 41.0609L88.616 41.0732L88.6671 41.0857L88.7182 41.0985L88.7694 41.1116L88.8205 41.125L88.8716 41.1386L88.9228 41.1526L88.9739 41.1669L89.0251 41.1815L89.0762 41.1964L89.1274 41.2115L89.1785 41.227L89.2297 41.2428L89.2808 41.2588L89.332 41.2752L89.3831 41.2919L89.4342 41.3088L89.4854 41.3261L89.5365 41.3437L89.5877 41.3615L89.6388 41.3797L89.6899 41.3982L89.7411 41.4169L89.7922 41.4359L89.8434 41.4553L89.8945 41.475L89.9456 41.4949L89.9968 41.5151L90.0479 41.5356L90.0991 41.5564L90.1502 41.5775L90.2013 41.5989L90.2525 41.6205L90.3036 41.6425L90.3548 41.6647L90.4059 41.6872L90.4571 41.7099L90.5082 41.733L90.5594 41.7563L90.6105 41.7799L90.6616 41.8037L90.7128 41.8278L90.7639 41.8522L90.8151 41.8768L90.8662 41.9016L90.9173 41.9267L90.9685 41.952L91.0196 41.9776L91.0705 42.0032V39.7518L91.0196 39.7392L90.9685 39.7269L90.9173 39.7147L90.8662 39.7027L90.8151 39.6908L90.7639 39.6791L90.7128 39.6675L90.6616 39.656L90.6105 39.6447L90.5594 39.6334L90.5082 39.6223L90.4571 39.6113L90.4059 39.6003L90.3548 39.5896L90.3036 39.5789L90.2525 39.5683L90.2013 39.5578L90.1502 39.5474L90.0991 39.5371L90.0479 39.5269L89.9968 39.5169L89.9456 39.5069L89.8945 39.497L89.8434 39.4872L89.7922 39.4775L89.7411 39.468L89.6899 39.4585L89.6388 39.4491L89.5877 39.4398L89.5365 39.4307L89.4854 39.4216L89.4342 39.4126L89.3831 39.4037L89.332 39.395L89.2808 39.3863L89.2297 39.3778L89.1785 39.3693L89.1274 39.361L89.0762 39.3528L89.0251 39.3446L88.9739 39.3366L88.9228 39.3286L88.8716 39.3208L88.8205 39.3131L88.7694 39.3055L88.7182 39.2981L88.6671 39.2907L88.616 39.2835L88.5648 39.2764L88.5137 39.2694L88.4625 39.2625L88.4114 39.2557L88.3603 39.2491L88.3091 39.2425L88.258 39.2361L88.2068 39.2298L88.1557 39.2237L88.1046 39.2177L88.0534 39.2118L88.0023 39.206L87.9511 39.2003L87.9 39.1949L87.8489 39.1895L87.7977 39.1844L87.7466 39.1792L87.6954 39.1743L87.6443 39.1695L87.5931 39.1649L87.542 39.1604L87.4908 39.1561L87.4397 39.1519L87.3885 39.1478L87.3374 39.1441L87.2863 39.1403L87.2351 39.1368L87.184 39.1334L87.1329 39.1303L87.0817 39.1272L87.0306 39.1244L86.9794 39.1217L86.9283 39.1193L86.9021 39.118L86.8772 39.117L86.826 39.1148L86.7749 39.1127L86.7237 39.1106L86.6726 39.1088L86.6214 39.107L86.5703 39.1053L86.5192 39.1037L86.468 39.1023L86.4169 39.1009L86.3657 39.0996L86.3146 39.0985L86.2634 39.0975L86.2123 39.0964L86.1612 39.0957L86.11 39.095L86.0589 39.0944L86.0077 39.0939L85.9566 39.0937L85.9054 39.0934L85.8543 39.0933L85.8032 39.0933L85.752 39.0934L85.7009 39.0936L85.6498 39.0941L85.5986 39.0946L85.5475 39.0951L85.4963 39.096L85.4452 39.0968L85.394 39.0977L85.3429 39.099L85.2918 39.1003L85.2406 39.1016L85.1895 39.1032L85.1383 39.1049L85.0872 39.1066L85.036 39.1087L84.9849 39.1108L84.9337 39.1129L84.8826 39.1154L84.8315 39.118L84.7803 39.1205L84.7292 39.1234L84.678 39.1264L84.6269 39.1294L84.5758 39.1328L84.5246 39.1362L84.4735 39.1397L84.4223 39.1436L84.3712 39.1475L84.3201 39.1515L84.2689 39.1558L84.2178 39.1601L84.1666 39.1647L84.1155 39.1695L84.0643 39.1743L84.0132 39.1794L83.9621 39.1847L83.9109 39.19L83.8598 39.1957L83.8086 39.2015L83.7575 39.2073L83.7063 39.2136L83.6552 39.2199L83.6041 39.2265L83.5529 39.2332L83.5018 39.24L83.4506 39.2472L83.3995 39.2545L83.3484 39.262L83.2972 39.2698L83.2461 39.2776L83.1949 39.2859L83.1438 39.2943L83.0927 39.3028L83.0415 39.3117L82.9904 39.3205L82.9392 39.3299L82.8881 39.3394L82.8369 39.3491L82.7858 39.3591L82.7346 39.3691L82.6835 39.3797L82.6324 39.3903L82.5812 39.4013L82.5301 39.4125L82.4789 39.4239L82.4278 39.4357L82.3767 39.4475L82.3255 39.4599L82.2744 39.4724L82.2232 39.4852L82.1721 39.4983L82.121 39.5118L82.0698 39.5254L82.0187 39.5394L81.9675 39.5537L81.9164 39.5683L81.8653 39.5833L81.8141 39.5984L81.763 39.6141L81.7118 39.6299L81.6607 39.6463C81.6436 39.6518 81.6264 39.6572 81.6095 39.6627L81.5584 39.6799C81.5414 39.6856 81.5242 39.6912 81.5073 39.697L81.4561 39.7149L81.405 39.7328C81.3878 39.7389 81.3708 39.7452 81.3538 39.7515C81.3368 39.7577 81.3196 39.7638 81.3027 39.7701L81.2515 39.7896C81.2345 39.7961 81.2173 39.8025 81.2004 39.8091L81.1492 39.8293L81.0981 39.8497L81.047 39.8708L80.9958 39.8922L80.9447 39.914L80.8936 39.9364L80.8425 39.9591L80.7913 39.9826L80.7402 40.0062C80.723 40.0143 80.706 40.0226 80.689 40.0307L80.6379 40.0555L80.5867 40.081L80.5356 40.1071C80.5185 40.1159 80.5013 40.1246 80.4844 40.1335C80.4672 40.1425 80.4503 40.1517 80.4333 40.1608L80.3822 40.1886L80.331 40.217C80.3138 40.2266 80.2969 40.2364 80.2799 40.2462C80.2628 40.256 80.2456 40.2658 80.2287 40.2757C80.2116 40.2858 80.1946 40.296 80.1776 40.3062C80.1604 40.3166 80.1434 40.327 80.1265 40.3375C80.1094 40.348 80.0922 40.3586 80.0753 40.3692C80.0581 40.38 80.0411 40.391 80.0242 40.402L79.9731 40.4354C79.9559 40.4468 79.9388 40.4581 79.9219 40.4696L79.8708 40.5047C79.8536 40.5167 79.8366 40.5287 79.8196 40.5407C79.8025 40.553 79.7854 40.5653 79.7685 40.5776C79.7514 40.5901 79.7342 40.6026 79.7174 40.6152C79.7001 40.6282 79.6832 40.6412 79.6662 40.6543C79.649 40.6675 79.632 40.6808 79.615 40.6942C79.5979 40.7077 79.5808 40.7213 79.5639 40.735V40.735Z" fill="url(#paint2_linear_66_794)"/>
</g>
</g>
</g>
<defs>
<filter id="filter0_d_66_794" x="0" y="0" width="172" height="139" filterUnits="userSpaceOnUse" color-interpolation-filters="sRGB">
<feFlood flood-opacity="0" result="BackgroundImageFix"/>
<feColorMatrix in="SourceAlpha" type="matrix" values="0 0 0 0 0 0 0 0 0 0 0 0 0 0 0 0 0 0 127 0" result="hardAlpha"/>
<feOffset dy="25"/>
<feGaussianBlur stdDeviation="20"/>
<feColorMatrix type="matrix" values="0 0 0 0 0 0 0 0 0 0 0 0 0 0 0 0 0 0 0.03 0"/>
<feBlend mode="normal" in2="BackgroundImageFix" result="effect1_dropShadow_66_794"/>
<feBlend mode="normal" in="SourceGraphic" in2="effect1_dropShadow_66_794" result="shape"/>
</filter>
<linearGradient id="paint0_linear_66_794" x1="94.1377" y1="44.5001" x2="107.231" y2="44.5001" gradientUnits="userSpaceOnUse">
<stop stop-color="#007B40"/>
<stop offset="1" stop-color="#55B330"/>
</linearGradient>
<linearGradient id="paint1_linear_66_794" x1="64.7698" y1="44.5001" x2="77.8612" y2="44.5001" gradientUnits="userSpaceOnUse">
<stop stop-color="#1D2970"/>
<stop offset="1" stop-color="#006DBA"/>
</linearGradient>
<linearGradient id="paint2_linear_66_794" x1="79.4541" y1="44.5001" x2="92.5461" y2="44.5001" gradientUnits="userSpaceOnUse">
<stop stop-color="#6E2B2F"/>
<stop offset="1" stop-color="#E30138"/>
</linearGradient>
</defs>
</svg>
